<svg width="18" height="18" viewBox="0 0 18 18" fill="none" xmlns="http://www.w3.org/2000/svg">
<path d="M8.99121 17.2939C13.6494 17.2939 17.5078 13.4355 17.5078 8.77734C17.5078 4.11914 13.6406 0.260742 8.98242 0.260742C4.33301 0.260742 0.474609 4.11914 0.474609 8.77734C0.474609 13.4355 4.33301 17.2939 8.99121 17.2939ZM8.06836 12.8555C7.76953 12.8555 7.53223 12.7324 7.30371 12.4424L5.23828 9.90234C5.10645 9.73535 5.02734 9.54199 5.02734 9.34863C5.02734 8.95312 5.33496 8.63672 5.73047 8.63672C5.97656 8.63672 6.16992 8.71582 6.37207 8.98828L8.0332 11.124L11.5488 5.49023C11.707 5.21777 11.9268 5.08594 12.1641 5.08594C12.5508 5.08594 12.9023 5.34961 12.9023 5.75391C12.9023 5.93848 12.7969 6.14062 12.6914 6.31641L8.78027 12.4336C8.60449 12.7148 8.3584 12.8555 8.06836 12.8555Z" fill="#27AE60"/>
</svg>
