<svg width="294" height="34" viewBox="0 0 294 34" fill="none" xmlns="http://www.w3.org/2000/svg">
<g clip-path="url(#clip0_295_2296)">
<path fill-rule="evenodd" clip-rule="evenodd" d="M43.6917 11.5341V0.782741H54.6158V11.7048H54.6174C54.6174 17.7313 49.7198 22.6289 43.6933 22.6289V11.7069H43.693V22.6289C37.7396 22.6289 32.8878 17.8493 32.7709 11.9235V22.6311H21.8468V11.7069H32.7688V11.7048H21.8452C21.8452 5.67851 26.7426 0.780969 32.7688 0.780648V0.780273C38.7384 0.780273 43.6004 5.5859 43.6917 11.5341ZM43.6917 11.7044H32.7694V11.7048H43.6917V11.7044Z" fill="url(#paint0_linear_295_2296)"/>
<path fill-rule="evenodd" clip-rule="evenodd" d="M10.9242 11.8509V11.8506C4.89767 11.8506 0 16.7483 0 22.7748H10.9239V22.7751H21.8463V22.7754H10.9239V22.7775H0.00246716V33.7017H10.9266V23.0199C11.057 28.9338 15.9033 33.6995 21.8481 33.6995V22.7775H21.8484V33.6995C27.8749 33.6995 32.7726 28.8019 32.7726 22.7754H32.7704V11.8534H21.8463V22.5726C21.7381 16.6393 16.8829 11.851 10.9242 11.8509Z" fill="#2543CE" fill-opacity="0.2"/>
<path d="M61.7459 11.8364H66.5002C67.6364 11.8364 68.6381 12.0556 69.5052 12.4942C70.3823 12.9228 71.0601 13.5308 71.5385 14.3182C72.0269 15.1056 72.2711 16.0225 72.2711 17.0691C72.2711 18.1156 72.0269 19.0326 71.5385 19.82C71.0601 20.6074 70.3823 21.2203 69.5052 21.6589C68.6381 22.0875 67.6364 22.3018 66.5002 22.3018H61.7459V11.8364ZM66.3805 20.3133C67.4271 20.3133 68.2593 20.0243 68.8773 19.4462C69.5052 18.8581 69.8192 18.0658 69.8192 17.0691C69.8192 16.0724 69.5052 15.285 68.8773 14.7069C68.2593 14.1188 67.4271 13.8248 66.3805 13.8248H64.1679V20.3133H66.3805ZM81.8121 18.31C81.8121 18.3399 81.7971 18.5492 81.7672 18.9379H75.6824C75.792 19.4362 76.0511 19.8299 76.4598 20.119C76.8684 20.408 77.3768 20.5525 77.9848 20.5525C78.4034 20.5525 78.7722 20.4927 79.0911 20.3731C79.42 20.2436 79.724 20.0442 80.0031 19.7751L81.244 21.1207C80.4865 21.9878 79.3801 22.4214 77.925 22.4214C77.018 22.4214 76.2156 22.2469 75.5179 21.8981C74.8202 21.5393 74.282 21.0459 73.9032 20.418C73.5245 19.7901 73.3351 19.0774 73.3351 18.2801C73.3351 17.4927 73.5195 16.785 73.8883 16.1571C74.267 15.5192 74.7803 15.0258 75.4282 14.677C76.086 14.3182 76.8186 14.1387 77.6259 14.1387C78.4133 14.1387 79.126 14.3082 79.7639 14.6471C80.4018 14.9859 80.9001 15.4743 81.2589 16.1122C81.6277 16.7401 81.8121 17.4727 81.8121 18.31ZM77.6409 15.9029C77.1126 15.9029 76.6691 16.0524 76.3103 16.3514C75.9515 16.6504 75.7322 17.0591 75.6525 17.5774H79.6144C79.5346 17.0691 79.3154 16.6654 78.9565 16.3664C78.5977 16.0574 78.1592 15.9029 77.6409 15.9029ZM91.2438 18.31C91.2438 18.3399 91.2289 18.5492 91.199 18.9379H85.1141C85.2237 19.4362 85.4829 19.8299 85.8915 20.119C86.3001 20.408 86.8085 20.5525 87.4165 20.5525C87.8351 20.5525 88.2039 20.4927 88.5228 20.3731C88.8517 20.2436 89.1557 20.0442 89.4348 19.7751L90.6757 21.1207C89.9182 21.9878 88.8118 22.4214 87.3567 22.4214C86.4497 22.4214 85.6473 22.2469 84.9496 21.8981C84.2519 21.5393 83.7137 21.0459 83.335 20.418C82.9562 19.7901 82.7668 19.0774 82.7668 18.2801C82.7668 17.4927 82.9512 16.785 83.32 16.1571C83.6988 15.5192 84.2121 15.0258 84.8599 14.677C85.5177 14.3182 86.2503 14.1387 87.0576 14.1387C87.845 14.1387 88.5577 14.3082 89.1956 14.6471C89.8335 14.9859 90.3318 15.4743 90.6906 16.1122C91.0594 16.7401 91.2438 17.4727 91.2438 18.31ZM87.0726 15.9029C86.5443 15.9029 86.1008 16.0524 85.742 16.3514C85.3832 16.6504 85.1639 17.0591 85.0842 17.5774H89.0461C88.9663 17.0691 88.7471 16.6654 88.3882 16.3664C88.0294 16.0574 87.5909 15.9029 87.0726 15.9029ZM97.5508 14.1387C98.2984 14.1387 98.9761 14.3132 99.5841 14.662C100.202 15.0009 100.685 15.4843 101.034 16.1122C101.383 16.7302 101.558 17.4528 101.558 18.2801C101.558 19.1073 101.383 19.8349 101.034 20.4628C100.685 21.0808 100.202 21.5642 99.5841 21.913C98.9761 22.2519 98.2984 22.4214 97.5508 22.4214C96.5242 22.4214 95.7169 22.0974 95.1288 21.4496V25.2022H92.7966V14.2584H95.0242V15.1853C95.6023 14.4876 96.4445 14.1387 97.5508 14.1387ZM97.1472 20.5077C97.7452 20.5077 98.2336 20.3083 98.6123 19.9097C99.001 19.501 99.1954 18.9578 99.1954 18.2801C99.1954 17.6023 99.001 17.0641 98.6123 16.6654C98.2336 16.2567 97.7452 16.0524 97.1472 16.0524C96.5491 16.0524 96.0558 16.2567 95.6671 16.6654C95.2883 17.0641 95.0989 17.6023 95.0989 18.2801C95.0989 18.9578 95.2883 19.501 95.6671 19.9097C96.0558 20.3083 96.5491 20.5077 97.1472 20.5077ZM110.355 16.9046H112.568V21.1506C112 21.5791 111.342 21.9081 110.594 22.1373C109.847 22.3665 109.094 22.4812 108.337 22.4812C107.25 22.4812 106.273 22.2519 105.406 21.7934C104.539 21.325 103.856 20.6821 103.358 19.8648C102.87 19.0376 102.626 18.1056 102.626 17.0691C102.626 16.0325 102.87 15.1056 103.358 14.2883C103.856 13.461 104.544 12.8181 105.421 12.3596C106.298 11.8912 107.285 11.657 108.381 11.657C109.298 11.657 110.131 11.8114 110.878 12.1204C111.626 12.4294 112.254 12.8779 112.762 13.466L111.207 14.9012C110.46 14.1138 109.558 13.7201 108.501 13.7201C107.833 13.7201 107.24 13.8597 106.722 14.1387C106.204 14.4178 105.8 14.8115 105.511 15.3198C105.222 15.8282 105.077 16.4112 105.077 17.0691C105.077 17.7169 105.222 18.295 105.511 18.8033C105.8 19.3116 106.199 19.7103 106.707 19.9994C107.225 20.2784 107.813 20.418 108.471 20.418C109.169 20.418 109.797 20.2685 110.355 19.9695V16.9046ZM114.817 11.8364H117.239V22.3018H114.817V11.8364Z" fill="#474747"/>
</g>
<path d="M138.444 19.8752H131.424L129.912 23.2412H128.526L134.286 10.6412H135.6L141.36 23.2412H139.956L138.444 19.8752ZM137.958 18.7952L134.934 12.0272L131.91 18.7952H137.958ZM148.053 13.7012C148.941 13.7012 149.745 13.9052 150.465 14.3132C151.185 14.7092 151.749 15.2732 152.157 16.0052C152.565 16.7372 152.769 17.5712 152.769 18.5072C152.769 19.4552 152.565 20.2952 152.157 21.0272C151.749 21.7592 151.185 22.3292 150.465 22.7372C149.757 23.1332 148.953 23.3312 148.053 23.3312C147.285 23.3312 146.589 23.1752 145.965 22.8632C145.353 22.5392 144.849 22.0712 144.453 21.4592V26.7332H143.175V13.7732H144.399V15.6452C144.783 15.0212 145.287 14.5412 145.911 14.2052C146.547 13.8692 147.261 13.7012 148.053 13.7012ZM147.963 22.1972C148.623 22.1972 149.223 22.0472 149.763 21.7472C150.303 21.4352 150.723 20.9972 151.023 20.4332C151.335 19.8692 151.491 19.2272 151.491 18.5072C151.491 17.7872 151.335 17.1512 151.023 16.5992C150.723 16.0352 150.303 15.5972 149.763 15.2852C149.223 14.9732 148.623 14.8172 147.963 14.8172C147.291 14.8172 146.685 14.9732 146.145 15.2852C145.617 15.5972 145.197 16.0352 144.885 16.5992C144.585 17.1512 144.435 17.7872 144.435 18.5072C144.435 19.2272 144.585 19.8692 144.885 20.4332C145.197 20.9972 145.617 21.4352 146.145 21.7472C146.685 22.0472 147.291 22.1972 147.963 22.1972ZM160.252 13.7012C161.14 13.7012 161.944 13.9052 162.664 14.3132C163.384 14.7092 163.948 15.2732 164.356 16.0052C164.764 16.7372 164.968 17.5712 164.968 18.5072C164.968 19.4552 164.764 20.2952 164.356 21.0272C163.948 21.7592 163.384 22.3292 162.664 22.7372C161.956 23.1332 161.152 23.3312 160.252 23.3312C159.484 23.3312 158.788 23.1752 158.164 22.8632C157.552 22.5392 157.048 22.0712 156.652 21.4592V26.7332H155.374V13.7732H156.598V15.6452C156.982 15.0212 157.486 14.5412 158.11 14.2052C158.746 13.8692 159.46 13.7012 160.252 13.7012ZM160.162 22.1972C160.822 22.1972 161.422 22.0472 161.962 21.7472C162.502 21.4352 162.922 20.9972 163.222 20.4332C163.534 19.8692 163.69 19.2272 163.69 18.5072C163.69 17.7872 163.534 17.1512 163.222 16.5992C162.922 16.0352 162.502 15.5972 161.962 15.2852C161.422 14.9732 160.822 14.8172 160.162 14.8172C159.49 14.8172 158.884 14.9732 158.344 15.2852C157.816 15.5972 157.396 16.0352 157.084 16.5992C156.784 17.1512 156.634 17.7872 156.634 18.5072C156.634 19.2272 156.784 19.8692 157.084 20.4332C157.396 20.9972 157.816 21.4352 158.344 21.7472C158.884 22.0472 159.49 22.1972 160.162 22.1972ZM167.573 9.88521H168.851V23.2412H167.573V9.88521ZM172.407 13.7732H173.685V23.2412H172.407V13.7732ZM173.055 11.7032C172.791 11.7032 172.569 11.6132 172.389 11.4332C172.209 11.2532 172.119 11.0372 172.119 10.7852C172.119 10.5452 172.209 10.3352 172.389 10.1552C172.569 9.97521 172.791 9.88521 173.055 9.88521C173.319 9.88521 173.541 9.97521 173.721 10.1552C173.901 10.3232 173.991 10.5272 173.991 10.7672C173.991 11.0312 173.901 11.2532 173.721 11.4332C173.541 11.6132 173.319 11.7032 173.055 11.7032ZM181.165 23.3312C180.229 23.3312 179.389 23.1272 178.645 22.7192C177.913 22.3112 177.337 21.7412 176.917 21.0092C176.497 20.2652 176.287 19.4312 176.287 18.5072C176.287 17.5832 176.497 16.7552 176.917 16.0232C177.337 15.2912 177.913 14.7212 178.645 14.3132C179.389 13.9052 180.229 13.7012 181.165 13.7012C181.981 13.7012 182.707 13.8632 183.343 14.1872C183.991 14.4992 184.501 14.9612 184.873 15.5732L183.919 16.2212C183.607 15.7532 183.211 15.4052 182.731 15.1772C182.251 14.9372 181.729 14.8172 181.165 14.8172C180.481 14.8172 179.863 14.9732 179.311 15.2852C178.771 15.5852 178.345 16.0172 178.033 16.5812C177.733 17.1452 177.583 17.7872 177.583 18.5072C177.583 19.2392 177.733 19.8872 178.033 20.4512C178.345 21.0032 178.771 21.4352 179.311 21.7472C179.863 22.0472 180.481 22.1972 181.165 22.1972C181.729 22.1972 182.251 22.0832 182.731 21.8552C183.211 21.6272 183.607 21.2792 183.919 20.8112L184.873 21.4592C184.501 22.0712 183.991 22.5392 183.343 22.8632C182.695 23.1752 181.969 23.3312 181.165 23.3312ZM190.696 13.7012C191.932 13.7012 192.88 14.0132 193.54 14.6372C194.2 15.2492 194.53 16.1612 194.53 17.3732V23.2412H193.306V21.7652C193.018 22.2572 192.592 22.6412 192.028 22.9172C191.476 23.1932 190.816 23.3312 190.048 23.3312C188.992 23.3312 188.152 23.0792 187.528 22.5752C186.904 22.0712 186.592 21.4052 186.592 20.5772C186.592 19.7732 186.88 19.1252 187.456 18.6332C188.044 18.1412 188.974 17.8952 190.246 17.8952H193.252V17.3192C193.252 16.5032 193.024 15.8852 192.568 15.4652C192.112 15.0332 191.446 14.8172 190.57 14.8172C189.97 14.8172 189.394 14.9192 188.842 15.1232C188.29 15.3152 187.816 15.5852 187.42 15.9332L186.844 14.9792C187.324 14.5712 187.9 14.2592 188.572 14.0432C189.244 13.8152 189.952 13.7012 190.696 13.7012ZM190.246 22.3232C190.966 22.3232 191.584 22.1612 192.1 21.8372C192.616 21.5012 193 21.0212 193.252 20.3972V18.8492H190.282C188.662 18.8492 187.852 19.4132 187.852 20.5412C187.852 21.0932 188.062 21.5312 188.482 21.8552C188.902 22.1672 189.49 22.3232 190.246 22.3232ZM202.987 22.6652C202.747 22.8812 202.447 23.0492 202.087 23.1692C201.739 23.2772 201.373 23.3312 200.989 23.3312C200.101 23.3312 199.417 23.0912 198.937 22.6112C198.457 22.1312 198.217 21.4532 198.217 20.5772V14.8532H196.525V13.7732H198.217V11.7032H199.495V13.7732H202.375V14.8532H199.495V20.5052C199.495 21.0692 199.633 21.5012 199.909 21.8012C200.197 22.0892 200.605 22.2332 201.133 22.2332C201.397 22.2332 201.649 22.1912 201.889 22.1072C202.141 22.0232 202.357 21.9032 202.537 21.7472L202.987 22.6652ZM205.313 13.7732H206.591V23.2412H205.313V13.7732ZM205.961 11.7032C205.697 11.7032 205.475 11.6132 205.295 11.4332C205.115 11.2532 205.025 11.0372 205.025 10.7852C205.025 10.5452 205.115 10.3352 205.295 10.1552C205.475 9.97521 205.697 9.88521 205.961 9.88521C206.225 9.88521 206.447 9.97521 206.627 10.1552C206.807 10.3232 206.897 10.5272 206.897 10.7672C206.897 11.0312 206.807 11.2532 206.627 11.4332C206.447 11.6132 206.225 11.7032 205.961 11.7032ZM214.017 23.3312C213.105 23.3312 212.283 23.1272 211.551 22.7192C210.819 22.2992 210.243 21.7232 209.823 20.9912C209.403 20.2592 209.193 19.4312 209.193 18.5072C209.193 17.5832 209.403 16.7552 209.823 16.0232C210.243 15.2912 210.819 14.7212 211.551 14.3132C212.283 13.9052 213.105 13.7012 214.017 13.7012C214.929 13.7012 215.751 13.9052 216.483 14.3132C217.215 14.7212 217.785 15.2912 218.193 16.0232C218.613 16.7552 218.823 17.5832 218.823 18.5072C218.823 19.4312 218.613 20.2592 218.193 20.9912C217.785 21.7232 217.215 22.2992 216.483 22.7192C215.751 23.1272 214.929 23.3312 214.017 23.3312ZM214.017 22.1972C214.689 22.1972 215.289 22.0472 215.817 21.7472C216.357 21.4352 216.777 20.9972 217.077 20.4332C217.377 19.8692 217.527 19.2272 217.527 18.5072C217.527 17.7872 217.377 17.1452 217.077 16.5812C216.777 16.0172 216.357 15.5852 215.817 15.2852C215.289 14.9732 214.689 14.8172 214.017 14.8172C213.345 14.8172 212.739 14.9732 212.199 15.2852C211.671 15.5852 211.251 16.0172 210.939 16.5812C210.639 17.1452 210.489 17.7872 210.489 18.5072C210.489 19.2272 210.639 19.8692 210.939 20.4332C211.251 20.9972 211.671 21.4352 212.199 21.7472C212.739 22.0472 213.345 22.1972 214.017 22.1972ZM226.256 13.7012C227.444 13.7012 228.386 14.0492 229.082 14.7452C229.79 15.4292 230.144 16.4312 230.144 17.7512V23.2412H228.866V17.8772C228.866 16.8932 228.62 16.1432 228.128 15.6272C227.636 15.1112 226.934 14.8532 226.022 14.8532C225.002 14.8532 224.192 15.1592 223.592 15.7712C223.004 16.3712 222.71 17.2052 222.71 18.2732V23.2412H221.432V13.7732H222.656V15.5192C223.004 14.9432 223.484 14.4992 224.096 14.1872C224.72 13.8632 225.44 13.7012 226.256 13.7012ZM238.235 10.6412H243.743C245.087 10.6412 246.281 10.9052 247.325 11.4332C248.369 11.9492 249.179 12.6872 249.755 13.6472C250.331 14.5952 250.619 15.6932 250.619 16.9412C250.619 18.1892 250.331 19.2932 249.755 20.2532C249.179 21.2012 248.369 21.9392 247.325 22.4672C246.281 22.9832 245.087 23.2412 243.743 23.2412H238.235V10.6412ZM243.635 21.2612C244.559 21.2612 245.369 21.0872 246.065 20.7392C246.773 20.3792 247.313 19.8752 247.685 19.2272C248.069 18.5672 248.261 17.8052 248.261 16.9412C248.261 16.0772 248.069 15.3212 247.685 14.6732C247.313 14.0132 246.773 13.5092 246.065 13.1612C245.369 12.8012 244.559 12.6212 243.635 12.6212H240.575V21.2612H243.635ZM261.926 18.4892C261.926 18.6452 261.914 18.8672 261.89 19.1552H254.348C254.48 19.8632 254.822 20.4272 255.374 20.8472C255.938 21.2552 256.634 21.4592 257.462 21.4592C258.518 21.4592 259.388 21.1112 260.072 20.4152L261.278 21.8012C260.846 22.3172 260.3 22.7072 259.64 22.9712C258.98 23.2352 258.236 23.3672 257.408 23.3672C256.352 23.3672 255.422 23.1572 254.618 22.7372C253.814 22.3172 253.19 21.7352 252.746 20.9912C252.314 20.2352 252.098 19.3832 252.098 18.4352C252.098 17.4992 252.308 16.6592 252.728 15.9152C253.16 15.1592 253.754 14.5712 254.51 14.1512C255.266 13.7312 256.118 13.5212 257.066 13.5212C258.002 13.5212 258.836 13.7312 259.568 14.1512C260.312 14.5592 260.888 15.1412 261.296 15.8972C261.716 16.6412 261.926 17.5052 261.926 18.4892ZM257.066 15.3212C256.346 15.3212 255.734 15.5372 255.23 15.9692C254.738 16.3892 254.438 16.9532 254.33 17.6612H259.784C259.688 16.9652 259.394 16.4012 258.902 15.9692C258.41 15.5372 257.798 15.3212 257.066 15.3212ZM276.219 13.5212C277.431 13.5212 278.391 13.8752 279.099 14.5832C279.807 15.2792 280.161 16.3292 280.161 17.7332V23.2412H277.911V18.0212C277.911 17.1812 277.725 16.5512 277.353 16.1312C276.981 15.6992 276.447 15.4832 275.751 15.4832C274.995 15.4832 274.389 15.7352 273.933 16.2392C273.477 16.7312 273.249 17.4392 273.249 18.3632V23.2412H270.999V18.0212C270.999 17.1812 270.813 16.5512 270.441 16.1312C270.069 15.6992 269.535 15.4832 268.839 15.4832C268.071 15.4832 267.459 15.7292 267.003 16.2212C266.559 16.7132 266.337 17.4272 266.337 18.3632V23.2412H264.087V13.6292H266.229V14.8532C266.589 14.4212 267.039 14.0912 267.579 13.8632C268.119 13.6352 268.719 13.5212 269.379 13.5212C270.099 13.5212 270.735 13.6592 271.287 13.9352C271.851 14.1992 272.295 14.5952 272.619 15.1232C273.015 14.6192 273.525 14.2292 274.149 13.9532C274.773 13.6652 275.463 13.5212 276.219 13.5212ZM287.444 23.3672C286.472 23.3672 285.596 23.1572 284.816 22.7372C284.036 22.3172 283.424 21.7352 282.98 20.9912C282.548 20.2352 282.332 19.3832 282.332 18.4352C282.332 17.4872 282.548 16.6412 282.98 15.8972C283.424 15.1532 284.036 14.5712 284.816 14.1512C285.596 13.7312 286.472 13.5212 287.444 13.5212C288.428 13.5212 289.31 13.7312 290.09 14.1512C290.87 14.5712 291.476 15.1532 291.908 15.8972C292.352 16.6412 292.574 17.4872 292.574 18.4352C292.574 19.3832 292.352 20.2352 291.908 20.9912C291.476 21.7352 290.87 22.3172 290.09 22.7372C289.31 23.1572 288.428 23.3672 287.444 23.3672ZM287.444 21.4412C288.272 21.4412 288.956 21.1652 289.496 20.6132C290.036 20.0612 290.306 19.3352 290.306 18.4352C290.306 17.5352 290.036 16.8092 289.496 16.2572C288.956 15.7052 288.272 15.4292 287.444 15.4292C286.616 15.4292 285.932 15.7052 285.392 16.2572C284.864 16.8092 284.6 17.5352 284.6 18.4352C284.6 19.3352 284.864 20.0612 285.392 20.6132C285.932 21.1652 286.616 21.4412 287.444 21.4412Z" fill="#2543CE"/>
<defs>
<linearGradient id="paint0_linear_295_2296" x1="55.7909" y1="0.449201" x2="20.4776" y2="23.6577" gradientUnits="userSpaceOnUse">
<stop stop-color="#E28BF0"/>
<stop offset="0.477987" stop-color="#8D81D5"/>
<stop offset="1" stop-color="#487EE7"/>
</linearGradient>
<clipPath id="clip0_295_2296">
<rect width="118.49" height="32.9218" fill="white" transform="translate(0 0.780273)"/>
</clipPath>
</defs>
</svg>
