<svg width="55" height="34" viewBox="0 0 55 34" fill="none" xmlns="http://www.w3.org/2000/svg">
<path fill-rule="evenodd" clip-rule="evenodd" d="M43.6917 11.5341V0.782741H54.6158V11.7048H54.6174C54.6174 17.7313 49.7198 22.6289 43.6933 22.6289V11.7069H43.693V22.6289C37.7396 22.6289 32.8878 17.8493 32.7709 11.9235V22.6311H21.8468V11.7069H32.7688V11.7048H21.8452C21.8452 5.67851 26.7426 0.780969 32.7688 0.780648V0.780273C38.7384 0.780273 43.6004 5.5859 43.6917 11.5341ZM43.6917 11.7044H32.7694V11.7048H43.6917V11.7044Z" fill="url(#paint0_linear_360_6519)"/>
<path fill-rule="evenodd" clip-rule="evenodd" d="M10.9242 11.8509V11.8506C4.89767 11.8506 0 16.7483 0 22.7748H10.9239V22.7751H21.8463V22.7754H10.9239V22.7775H0.00246716V33.7017H10.9266V23.0199C11.057 28.9338 15.9033 33.6995 21.8481 33.6995V22.7775H21.8484V33.6995C27.8749 33.6995 32.7726 28.8019 32.7726 22.7754H32.7704V11.8534H21.8463V22.5726C21.7381 16.6393 16.8829 11.851 10.9242 11.8509Z" fill="#2543CE" fill-opacity="0.2"/>
<defs>
<linearGradient id="paint0_linear_360_6519" x1="55.7909" y1="0.449201" x2="20.4776" y2="23.6577" gradientUnits="userSpaceOnUse">
<stop stop-color="#E28BF0"/>
<stop offset="0.477987" stop-color="#8D81D5"/>
<stop offset="1" stop-color="#487EE7"/>
</linearGradient>
</defs>
</svg>
