<svg width="355" height="172" viewBox="0 0 355 172" fill="none" xmlns="http://www.w3.org/2000/svg">
<path d="M173.238 8.52441H133.457C130.319 8.52441 127.774 11.0687 127.774 14.2073V53.9878C127.774 57.1264 130.319 59.6708 133.457 59.6708H173.238C176.376 59.6708 178.921 57.1264 178.921 53.9878V14.2073C178.921 11.0687 176.376 8.52441 173.238 8.52441Z" stroke="#9E9E9E" stroke-width="4.2622" stroke-linecap="round" stroke-linejoin="round"/>
<path d="M143.403 28.4145C145.757 28.4145 147.665 26.5063 147.665 24.1523C147.665 21.7984 145.757 19.8901 143.403 19.8901C141.049 19.8901 139.141 21.7984 139.141 24.1523C139.141 26.5063 141.049 28.4145 143.403 28.4145Z" stroke="#9E9E9E" stroke-width="4.2622" stroke-linecap="round" stroke-linejoin="round"/>
<path d="M178.92 42.6219L164.713 28.4146L133.457 59.6706" stroke="#9E9E9E" stroke-width="4.2622" stroke-linecap="round" stroke-linejoin="round"/>
<path d="M232.672 55.645L211.124 71.0363L232.672 86.4275V55.645Z" stroke="#9E9E9E" stroke-width="4.2622" stroke-linecap="round" stroke-linejoin="round"/>
<path d="M204.967 49.4893H171.107C167.707 49.4893 164.95 52.2456 164.95 55.6458V86.4283C164.95 89.8284 167.707 92.5848 171.107 92.5848H204.967C208.368 92.5848 211.124 89.8284 211.124 86.4283V55.6458C211.124 52.2456 208.368 49.4893 204.967 49.4893Z" stroke="#9E9E9E" stroke-width="4.2622" stroke-linecap="round" stroke-linejoin="round"/>
<path d="M6.18802 137.976H4.56802V126.546H0.554023V125.124H10.184V126.546H6.18802V137.976ZM13.49 128.31C13.49 128.538 13.478 128.772 13.454 129.012C13.442 129.252 13.424 129.468 13.4 129.66H13.508C13.712 129.324 13.97 129.048 14.282 128.832C14.594 128.616 14.942 128.454 15.326 128.346C15.71 128.226 16.106 128.166 16.514 128.166C17.294 128.166 17.942 128.292 18.458 128.544C18.986 128.784 19.382 129.162 19.646 129.678C19.91 130.194 20.042 130.866 20.042 131.694V137.976H18.476V131.802C18.476 131.022 18.302 130.44 17.954 130.056C17.606 129.672 17.06 129.48 16.316 129.48C15.596 129.48 15.032 129.618 14.624 129.894C14.216 130.158 13.922 130.554 13.742 131.082C13.574 131.598 13.49 132.234 13.49 132.99V137.976H11.906V124.296H13.49V128.31ZM26.7589 128.148C27.5869 128.148 28.2949 128.328 28.8829 128.688C29.4829 129.048 29.9389 129.558 30.2509 130.218C30.5749 130.866 30.7369 131.628 30.7369 132.504V133.458H24.1309C24.1549 134.55 24.4309 135.384 24.9589 135.96C25.4989 136.524 26.2489 136.806 27.2089 136.806C27.8209 136.806 28.3609 136.752 28.8289 136.644C29.3089 136.524 29.8009 136.356 30.3049 136.14V137.526C29.8129 137.742 29.3269 137.898 28.8469 137.994C28.3669 138.102 27.7969 138.156 27.1369 138.156C26.2249 138.156 25.4149 137.97 24.7069 137.598C24.0109 137.226 23.4649 136.674 23.0689 135.942C22.6849 135.198 22.4929 134.292 22.4929 133.224C22.4929 132.168 22.6669 131.262 23.0149 130.506C23.3749 129.75 23.8729 129.168 24.5089 128.76C25.1569 128.352 25.9069 128.148 26.7589 128.148ZM26.7409 129.444C25.9849 129.444 25.3849 129.69 24.9409 130.182C24.5089 130.662 24.2509 131.334 24.1669 132.198H29.0809C29.0809 131.646 28.9969 131.166 28.8289 130.758C28.6609 130.35 28.4029 130.032 28.0549 129.804C27.7189 129.564 27.2809 129.444 26.7409 129.444ZM39.4529 128.328V137.976H37.8689V128.328H39.4529ZM38.6789 124.71C38.9189 124.71 39.1289 124.794 39.3089 124.962C39.5009 125.118 39.5969 125.37 39.5969 125.718C39.5969 126.054 39.5009 126.306 39.3089 126.474C39.1289 126.642 38.9189 126.726 38.6789 126.726C38.4149 126.726 38.1929 126.642 38.0129 126.474C37.8329 126.306 37.7429 126.054 37.7429 125.718C37.7429 125.37 37.8329 125.118 38.0129 124.962C38.1929 124.794 38.4149 124.71 38.6789 124.71ZM53.0935 128.148C54.1855 128.148 55.0015 128.43 55.5415 128.994C56.0815 129.546 56.3515 130.446 56.3515 131.694V137.976H54.7855V131.766C54.7855 131.01 54.6235 130.44 54.2995 130.056C53.9875 129.672 53.4955 129.48 52.8235 129.48C51.8875 129.48 51.2155 129.75 50.8075 130.29C50.4115 130.83 50.2135 131.616 50.2135 132.648V137.976H48.6475V131.766C48.6475 131.262 48.5755 130.842 48.4315 130.506C48.2875 130.158 48.0715 129.9 47.7835 129.732C47.4955 129.564 47.1235 129.48 46.6675 129.48C46.0195 129.48 45.5095 129.618 45.1375 129.894C44.7655 130.158 44.4955 130.548 44.3275 131.064C44.1715 131.58 44.0935 132.216 44.0935 132.972V137.976H42.5095V128.328H43.7875L44.0215 129.642H44.1115C44.3155 129.306 44.5615 129.03 44.8495 128.814C45.1495 128.586 45.4795 128.418 45.8395 128.31C46.1995 128.202 46.5715 128.148 46.9555 128.148C47.6995 128.148 48.3175 128.28 48.8095 128.544C49.3135 128.808 49.6795 129.216 49.9075 129.768H49.9975C50.3215 129.216 50.7595 128.808 51.3115 128.544C51.8755 128.28 52.4695 128.148 53.0935 128.148ZM62.9858 128.166C64.1618 128.166 65.0318 128.424 65.5958 128.94C66.1598 129.456 66.4418 130.278 66.4418 131.406V137.976H65.2898L64.9838 136.608H64.9118C64.6358 136.956 64.3478 137.25 64.0478 137.49C63.7598 137.718 63.4238 137.886 63.0398 137.994C62.6678 138.102 62.2118 138.156 61.6718 138.156C61.0958 138.156 60.5738 138.054 60.1058 137.85C59.6498 137.646 59.2898 137.334 59.0258 136.914C58.7618 136.482 58.6298 135.942 58.6298 135.294C58.6298 134.334 59.0078 133.596 59.7638 133.08C60.5198 132.552 61.6838 132.264 63.2558 132.216L64.8938 132.162V131.586C64.8938 130.782 64.7198 130.224 64.3718 129.912C64.0238 129.6 63.5318 129.444 62.8958 129.444C62.3918 129.444 61.9118 129.522 61.4558 129.678C60.9998 129.822 60.5738 129.99 60.1778 130.182L59.6918 128.994C60.1118 128.766 60.6098 128.574 61.1858 128.418C61.7618 128.25 62.3618 128.166 62.9858 128.166ZM63.4538 133.314C62.2538 133.362 61.4198 133.554 60.9518 133.89C60.4958 134.226 60.2678 134.7 60.2678 135.312C60.2678 135.852 60.4298 136.248 60.7538 136.5C61.0898 136.752 61.5158 136.878 62.0318 136.878C62.8478 136.878 63.5258 136.656 64.0658 136.212C64.6058 135.756 64.8758 135.06 64.8758 134.124V133.26L63.4538 133.314ZM72.8416 128.148C73.4776 128.148 74.0476 128.268 74.5516 128.508C75.0676 128.748 75.5056 129.114 75.8656 129.606H75.9556L76.1716 128.328H77.4316V138.138C77.4316 139.05 77.2756 139.812 76.9636 140.424C76.6516 141.048 76.1776 141.516 75.5416 141.828C74.9056 142.14 74.0956 142.296 73.1116 142.296C72.4156 142.296 71.7736 142.242 71.1856 142.134C70.6096 142.038 70.0936 141.888 69.6376 141.684V140.226C69.9496 140.382 70.2916 140.514 70.6636 140.622C71.0356 140.742 71.4376 140.832 71.8696 140.892C72.3016 140.952 72.7456 140.982 73.2016 140.982C74.0296 140.982 74.6776 140.736 75.1456 140.244C75.6256 139.764 75.8656 139.104 75.8656 138.264V137.886C75.8656 137.742 75.8716 137.538 75.8836 137.274C75.8956 136.998 75.9076 136.806 75.9196 136.698H75.8476C75.5116 137.19 75.0916 137.556 74.5876 137.796C74.0956 138.036 73.5196 138.156 72.8596 138.156C71.6116 138.156 70.6336 137.718 69.9256 136.842C69.2296 135.966 68.8816 134.742 68.8816 133.17C68.8816 132.138 69.0376 131.25 69.3496 130.506C69.6736 129.75 70.1296 129.168 70.7176 128.76C71.3056 128.352 72.0136 128.148 72.8416 128.148ZM73.0576 129.48C72.5176 129.48 72.0556 129.624 71.6716 129.912C71.2996 130.2 71.0116 130.62 70.8076 131.172C70.6156 131.724 70.5196 132.396 70.5196 133.188C70.5196 134.376 70.7356 135.288 71.1676 135.924C71.6116 136.548 72.2536 136.86 73.0936 136.86C73.5856 136.86 74.0056 136.8 74.3536 136.68C74.7016 136.548 74.9896 136.35 75.2176 136.086C75.4456 135.81 75.6136 135.462 75.7216 135.042C75.8296 134.622 75.8836 134.124 75.8836 133.548V133.17C75.8836 132.294 75.7816 131.586 75.5776 131.046C75.3856 130.506 75.0796 130.11 74.6596 129.858C74.2396 129.606 73.7056 129.48 73.0576 129.48ZM84.2218 128.148C85.0498 128.148 85.7578 128.328 86.3458 128.688C86.9458 129.048 87.4018 129.558 87.7138 130.218C88.0378 130.866 88.1998 131.628 88.1998 132.504V133.458H81.5938C81.6178 134.55 81.8938 135.384 82.4218 135.96C82.9618 136.524 83.7118 136.806 84.6718 136.806C85.2838 136.806 85.8238 136.752 86.2918 136.644C86.7718 136.524 87.2638 136.356 87.7678 136.14V137.526C87.2758 137.742 86.7898 137.898 86.3098 137.994C85.8298 138.102 85.2598 138.156 84.5998 138.156C83.6878 138.156 82.8778 137.97 82.1698 137.598C81.4738 137.226 80.9278 136.674 80.5318 135.942C80.1478 135.198 79.9558 134.292 79.9558 133.224C79.9558 132.168 80.1298 131.262 80.4778 130.506C80.8378 129.75 81.3358 129.168 81.9718 128.76C82.6198 128.352 83.3698 128.148 84.2218 128.148ZM84.2038 129.444C83.4478 129.444 82.8478 129.69 82.4038 130.182C81.9718 130.662 81.7138 131.334 81.6298 132.198H86.5438C86.5438 131.646 86.4598 131.166 86.2918 130.758C86.1238 130.35 85.8658 130.032 85.5178 129.804C85.1818 129.564 84.7438 129.444 84.2038 129.444ZM103.72 133.134C103.72 133.938 103.612 134.652 103.396 135.276C103.192 135.888 102.892 136.41 102.496 136.842C102.112 137.274 101.638 137.604 101.074 137.832C100.522 138.048 99.9038 138.156 99.2198 138.156C98.5838 138.156 97.9958 138.048 97.4558 137.832C96.9158 137.604 96.4478 137.274 96.0518 136.842C95.6558 136.41 95.3438 135.888 95.1158 135.276C94.8998 134.652 94.7918 133.938 94.7918 133.134C94.7918 132.066 94.9718 131.166 95.3318 130.434C95.6918 129.69 96.2078 129.126 96.8798 128.742C97.5518 128.346 98.3498 128.148 99.2738 128.148C100.15 128.148 100.918 128.346 101.578 128.742C102.25 129.126 102.772 129.69 103.144 130.434C103.528 131.166 103.72 132.066 103.72 133.134ZM96.4298 133.134C96.4298 133.89 96.5258 134.55 96.7178 135.114C96.9218 135.666 97.2338 136.092 97.6538 136.392C98.0738 136.692 98.6078 136.842 99.2558 136.842C99.9038 136.842 100.438 136.692 100.858 136.392C101.278 136.092 101.584 135.666 101.776 135.114C101.98 134.55 102.082 133.89 102.082 133.134C102.082 132.366 101.98 131.712 101.776 131.172C101.572 130.632 101.26 130.218 100.84 129.93C100.432 129.63 99.8978 129.48 99.2378 129.48C98.2538 129.48 97.5398 129.804 97.0958 130.452C96.6518 131.1 96.4298 131.994 96.4298 133.134ZM110.73 128.148C110.91 128.148 111.102 128.16 111.306 128.184C111.522 128.196 111.708 128.22 111.864 128.256L111.666 129.714C111.51 129.678 111.336 129.648 111.144 129.624C110.964 129.6 110.79 129.588 110.622 129.588C110.25 129.588 109.896 129.666 109.56 129.822C109.224 129.978 108.924 130.2 108.66 130.488C108.396 130.764 108.186 131.1 108.03 131.496C107.886 131.892 107.814 132.336 107.814 132.828V137.976H106.23V128.328H107.526L107.706 130.092H107.778C107.982 129.732 108.228 129.408 108.516 129.12C108.804 128.82 109.134 128.586 109.506 128.418C109.878 128.238 110.286 128.148 110.73 128.148ZM120.466 137.976L116.812 128.328H118.504L120.556 134.016C120.652 134.28 120.754 134.574 120.862 134.898C120.97 135.222 121.066 135.534 121.15 135.834C121.234 136.122 121.294 136.368 121.33 136.572H121.402C121.45 136.368 121.516 136.116 121.6 135.816C121.696 135.516 121.798 135.204 121.906 134.88C122.026 134.556 122.128 134.268 122.212 134.016L124.264 128.328H125.956L122.284 137.976H120.466ZM129.066 128.328V137.976H127.482V128.328H129.066ZM128.292 124.71C128.532 124.71 128.742 124.794 128.922 124.962C129.114 125.118 129.21 125.37 129.21 125.718C129.21 126.054 129.114 126.306 128.922 126.474C128.742 126.642 128.532 126.726 128.292 126.726C128.028 126.726 127.806 126.642 127.626 126.474C127.446 126.306 127.356 126.054 127.356 125.718C127.356 125.37 127.446 125.118 127.626 124.962C127.806 124.794 128.028 124.71 128.292 124.71ZM135.543 138.156C134.343 138.156 133.383 137.742 132.663 136.914C131.943 136.074 131.583 134.826 131.583 133.17C131.583 131.514 131.943 130.266 132.663 129.426C133.395 128.574 134.361 128.148 135.561 128.148C136.065 128.148 136.503 128.214 136.875 128.346C137.247 128.466 137.571 128.634 137.847 128.85C138.123 129.066 138.357 129.306 138.549 129.57H138.657C138.645 129.414 138.621 129.186 138.585 128.886C138.561 128.574 138.549 128.328 138.549 128.148V124.296H140.133V137.976H138.855L138.621 136.68H138.549C138.357 136.956 138.123 137.208 137.847 137.436C137.571 137.652 137.241 137.826 136.857 137.958C136.485 138.09 136.047 138.156 135.543 138.156ZM135.795 136.842C136.815 136.842 137.529 136.566 137.937 136.014C138.357 135.45 138.567 134.604 138.567 133.476V133.188C138.567 131.988 138.369 131.07 137.973 130.434C137.577 129.786 136.845 129.462 135.777 129.462C134.925 129.462 134.283 129.804 133.851 130.488C133.431 131.16 133.221 132.066 133.221 133.206C133.221 134.358 133.431 135.252 133.851 135.888C134.283 136.524 134.931 136.842 135.795 136.842ZM146.923 128.148C147.751 128.148 148.459 128.328 149.047 128.688C149.647 129.048 150.103 129.558 150.415 130.218C150.739 130.866 150.901 131.628 150.901 132.504V133.458H144.295C144.319 134.55 144.595 135.384 145.123 135.96C145.663 136.524 146.413 136.806 147.373 136.806C147.985 136.806 148.525 136.752 148.993 136.644C149.473 136.524 149.965 136.356 150.469 136.14V137.526C149.977 137.742 149.491 137.898 149.011 137.994C148.531 138.102 147.961 138.156 147.301 138.156C146.389 138.156 145.579 137.97 144.871 137.598C144.175 137.226 143.629 136.674 143.233 135.942C142.849 135.198 142.657 134.292 142.657 133.224C142.657 132.168 142.831 131.262 143.179 130.506C143.539 129.75 144.037 129.168 144.673 128.76C145.321 128.352 146.071 128.148 146.923 128.148ZM146.905 129.444C146.149 129.444 145.549 129.69 145.105 130.182C144.673 130.662 144.415 131.334 144.331 132.198H149.245C149.245 131.646 149.161 131.166 148.993 130.758C148.825 130.35 148.567 130.032 148.219 129.804C147.883 129.564 147.445 129.444 146.905 129.444ZM161.745 133.134C161.745 133.938 161.637 134.652 161.421 135.276C161.217 135.888 160.917 136.41 160.521 136.842C160.137 137.274 159.663 137.604 159.099 137.832C158.547 138.048 157.929 138.156 157.245 138.156C156.609 138.156 156.021 138.048 155.481 137.832C154.941 137.604 154.473 137.274 154.077 136.842C153.681 136.41 153.369 135.888 153.141 135.276C152.925 134.652 152.817 133.938 152.817 133.134C152.817 132.066 152.997 131.166 153.357 130.434C153.717 129.69 154.233 129.126 154.905 128.742C155.577 128.346 156.375 128.148 157.299 128.148C158.175 128.148 158.943 128.346 159.603 128.742C160.275 129.126 160.797 129.69 161.169 130.434C161.553 131.166 161.745 132.066 161.745 133.134ZM154.455 133.134C154.455 133.89 154.551 134.55 154.743 135.114C154.947 135.666 155.259 136.092 155.679 136.392C156.099 136.692 156.633 136.842 157.281 136.842C157.929 136.842 158.463 136.692 158.883 136.392C159.303 136.092 159.609 135.666 159.801 135.114C160.005 134.55 160.107 133.89 160.107 133.134C160.107 132.366 160.005 131.712 159.801 131.172C159.597 130.632 159.285 130.218 158.865 129.93C158.457 129.63 157.923 129.48 157.263 129.48C156.279 129.48 155.565 129.804 155.121 130.452C154.677 131.1 154.455 131.994 154.455 133.134ZM175.159 132.522C175.087 132.27 175.015 132.024 174.943 131.784C174.871 131.532 174.805 131.298 174.745 131.082C174.697 130.854 174.649 130.644 174.601 130.452C174.553 130.26 174.517 130.098 174.493 129.966H174.421C174.397 130.098 174.361 130.26 174.313 130.452C174.277 130.644 174.229 130.854 174.169 131.082C174.121 131.31 174.061 131.55 173.989 131.802C173.929 132.042 173.857 132.288 173.773 132.54L172.045 137.958H170.245L167.599 128.31H169.237L170.569 133.458C170.665 133.806 170.755 134.16 170.839 134.52C170.923 134.868 170.995 135.204 171.055 135.528C171.127 135.84 171.175 136.11 171.199 136.338H171.271C171.307 136.194 171.349 136.014 171.397 135.798C171.445 135.582 171.493 135.354 171.541 135.114C171.601 134.874 171.661 134.634 171.721 134.394C171.793 134.154 171.859 133.938 171.919 133.746L173.629 128.31H175.357L177.013 133.746C177.097 134.022 177.181 134.316 177.265 134.628C177.361 134.94 177.445 135.246 177.517 135.546C177.589 135.834 177.637 136.092 177.661 136.32H177.733C177.757 136.116 177.799 135.864 177.859 135.564C177.931 135.252 178.009 134.916 178.093 134.556C178.189 134.184 178.285 133.818 178.381 133.458L179.731 128.31H181.351L178.669 137.958H176.815L175.159 132.522ZM184.666 128.328V137.976H183.082V128.328H184.666ZM183.892 124.71C184.132 124.71 184.342 124.794 184.522 124.962C184.714 125.118 184.81 125.37 184.81 125.718C184.81 126.054 184.714 126.306 184.522 126.474C184.342 126.642 184.132 126.726 183.892 126.726C183.628 126.726 183.406 126.642 183.226 126.474C183.046 126.306 182.956 126.054 182.956 125.718C182.956 125.37 183.046 125.118 183.226 124.962C183.406 124.794 183.628 124.71 183.892 124.71ZM189.306 137.976H187.722V124.296H189.306V137.976ZM193.947 137.976H192.363V124.296H193.947V137.976ZM203.263 127.626C203.263 128.034 203.251 128.418 203.227 128.778C203.215 129.126 203.197 129.402 203.173 129.606H203.263C203.539 129.198 203.917 128.856 204.397 128.58C204.877 128.304 205.495 128.166 206.251 128.166C207.451 128.166 208.411 128.586 209.131 129.426C209.863 130.254 210.229 131.496 210.229 133.152C210.229 134.256 210.061 135.18 209.725 135.924C209.401 136.668 208.939 137.226 208.339 137.598C207.739 137.97 207.043 138.156 206.251 138.156C205.495 138.156 204.877 138.018 204.397 137.742C203.917 137.466 203.539 137.136 203.263 136.752H203.137L202.813 137.976H201.679V124.296H203.263V127.626ZM205.981 129.48C205.297 129.48 204.757 129.612 204.361 129.876C203.965 130.128 203.683 130.524 203.515 131.064C203.347 131.592 203.263 132.27 203.263 133.098V133.17C203.263 134.358 203.455 135.27 203.839 135.906C204.235 136.53 204.961 136.842 206.017 136.842C206.881 136.842 207.523 136.524 207.943 135.888C208.375 135.252 208.591 134.334 208.591 133.134C208.591 131.922 208.375 131.01 207.943 130.398C207.523 129.786 206.869 129.48 205.981 129.48ZM216.48 128.148C217.308 128.148 218.016 128.328 218.604 128.688C219.204 129.048 219.66 129.558 219.972 130.218C220.296 130.866 220.458 131.628 220.458 132.504V133.458H213.852C213.876 134.55 214.152 135.384 214.68 135.96C215.22 136.524 215.97 136.806 216.93 136.806C217.542 136.806 218.082 136.752 218.55 136.644C219.03 136.524 219.522 136.356 220.026 136.14V137.526C219.534 137.742 219.048 137.898 218.568 137.994C218.088 138.102 217.518 138.156 216.858 138.156C215.946 138.156 215.136 137.97 214.428 137.598C213.732 137.226 213.186 136.674 212.79 135.942C212.406 135.198 212.214 134.292 212.214 133.224C212.214 132.168 212.388 131.262 212.736 130.506C213.096 129.75 213.594 129.168 214.23 128.76C214.878 128.352 215.628 128.148 216.48 128.148ZM216.462 129.444C215.706 129.444 215.106 129.69 214.662 130.182C214.23 130.662 213.972 131.334 213.888 132.198H218.802C218.802 131.646 218.718 131.166 218.55 130.758C218.382 130.35 218.124 130.032 217.776 129.804C217.44 129.564 217.002 129.444 216.462 129.444ZM231.01 138.156C229.81 138.156 228.85 137.742 228.13 136.914C227.41 136.074 227.05 134.826 227.05 133.17C227.05 131.514 227.41 130.266 228.13 129.426C228.862 128.574 229.828 128.148 231.028 128.148C231.532 128.148 231.97 128.214 232.342 128.346C232.714 128.466 233.038 128.634 233.314 128.85C233.59 129.066 233.824 129.306 234.016 129.57H234.124C234.112 129.414 234.088 129.186 234.052 128.886C234.028 128.574 234.016 128.328 234.016 128.148V124.296H235.6V137.976H234.322L234.088 136.68H234.016C233.824 136.956 233.59 137.208 233.314 137.436C233.038 137.652 232.708 137.826 232.324 137.958C231.952 138.09 231.514 138.156 231.01 138.156ZM231.262 136.842C232.282 136.842 232.996 136.566 233.404 136.014C233.824 135.45 234.034 134.604 234.034 133.476V133.188C234.034 131.988 233.836 131.07 233.44 130.434C233.044 129.786 232.312 129.462 231.244 129.462C230.392 129.462 229.75 129.804 229.318 130.488C228.898 131.16 228.688 132.066 228.688 133.206C228.688 134.358 228.898 135.252 229.318 135.888C229.75 136.524 230.398 136.842 231.262 136.842ZM240.248 128.328V137.976H238.664V128.328H240.248ZM239.474 124.71C239.714 124.71 239.924 124.794 240.104 124.962C240.296 125.118 240.392 125.37 240.392 125.718C240.392 126.054 240.296 126.306 240.104 126.474C239.924 126.642 239.714 126.726 239.474 126.726C239.21 126.726 238.988 126.642 238.808 126.474C238.628 126.306 238.538 126.054 238.538 125.718C238.538 125.37 238.628 125.118 238.808 124.962C238.988 124.794 239.21 124.71 239.474 124.71ZM249.586 135.312C249.586 135.936 249.43 136.458 249.118 136.878C248.806 137.298 248.362 137.616 247.786 137.832C247.21 138.048 246.526 138.156 245.734 138.156C245.062 138.156 244.48 138.102 243.988 137.994C243.508 137.886 243.082 137.736 242.71 137.544V136.104C243.094 136.296 243.556 136.476 244.096 136.644C244.648 136.8 245.206 136.878 245.77 136.878C246.574 136.878 247.156 136.752 247.516 136.5C247.876 136.236 248.056 135.888 248.056 135.456C248.056 135.216 247.99 135 247.858 134.808C247.726 134.616 247.486 134.424 247.138 134.232C246.802 134.04 246.316 133.824 245.68 133.584C245.056 133.344 244.522 133.104 244.078 132.864C243.634 132.624 243.292 132.336 243.052 132C242.812 131.664 242.692 131.232 242.692 130.704C242.692 129.888 243.022 129.258 243.682 128.814C244.354 128.37 245.23 128.148 246.31 128.148C246.898 128.148 247.444 128.208 247.948 128.328C248.464 128.436 248.944 128.592 249.388 128.796L248.848 130.056C248.584 129.936 248.302 129.834 248.002 129.75C247.714 129.654 247.42 129.582 247.12 129.534C246.82 129.474 246.514 129.444 246.202 129.444C245.554 129.444 245.056 129.552 244.708 129.768C244.372 129.972 244.204 130.254 244.204 130.614C244.204 130.878 244.282 131.106 244.438 131.298C244.594 131.478 244.852 131.658 245.212 131.838C245.584 132.006 246.076 132.21 246.688 132.45C247.3 132.678 247.822 132.912 248.254 133.152C248.686 133.392 249.016 133.686 249.244 134.034C249.472 134.37 249.586 134.796 249.586 135.312ZM256.508 128.148C257.696 128.148 258.65 128.562 259.37 129.39C260.102 130.218 260.468 131.466 260.468 133.134C260.468 134.226 260.3 135.15 259.964 135.906C259.64 136.65 259.178 137.214 258.578 137.598C257.99 137.97 257.294 138.156 256.49 138.156C255.998 138.156 255.56 138.09 255.176 137.958C254.792 137.826 254.462 137.658 254.186 137.454C253.922 137.238 253.694 137.004 253.502 136.752H253.394C253.418 136.956 253.442 137.214 253.466 137.526C253.49 137.838 253.502 138.108 253.502 138.336V142.296H251.918V128.328H253.214L253.43 129.642H253.502C253.694 129.366 253.922 129.114 254.186 128.886C254.462 128.658 254.786 128.478 255.158 128.346C255.542 128.214 255.992 128.148 256.508 128.148ZM256.22 129.48C255.572 129.48 255.05 129.606 254.654 129.858C254.258 130.098 253.97 130.464 253.79 130.956C253.61 131.448 253.514 132.072 253.502 132.828V133.134C253.502 133.926 253.586 134.598 253.754 135.15C253.922 135.702 254.204 136.122 254.6 136.41C255.008 136.698 255.56 136.842 256.256 136.842C256.844 136.842 257.324 136.68 257.696 136.356C258.08 136.032 258.362 135.594 258.542 135.042C258.734 134.478 258.83 133.836 258.83 133.116C258.83 132.012 258.614 131.13 258.182 130.47C257.762 129.81 257.108 129.48 256.22 129.48ZM264.576 137.976H262.992V124.296H264.576V137.976ZM271.287 128.166C272.463 128.166 273.333 128.424 273.897 128.94C274.461 129.456 274.743 130.278 274.743 131.406V137.976H273.591L273.285 136.608H273.213C272.937 136.956 272.649 137.25 272.349 137.49C272.061 137.718 271.725 137.886 271.341 137.994C270.969 138.102 270.513 138.156 269.973 138.156C269.397 138.156 268.875 138.054 268.407 137.85C267.951 137.646 267.591 137.334 267.327 136.914C267.063 136.482 266.931 135.942 266.931 135.294C266.931 134.334 267.309 133.596 268.065 133.08C268.821 132.552 269.985 132.264 271.557 132.216L273.195 132.162V131.586C273.195 130.782 273.021 130.224 272.673 129.912C272.325 129.6 271.833 129.444 271.197 129.444C270.693 129.444 270.213 129.522 269.757 129.678C269.301 129.822 268.875 129.99 268.479 130.182L267.993 128.994C268.413 128.766 268.911 128.574 269.487 128.418C270.063 128.25 270.663 128.166 271.287 128.166ZM271.755 133.314C270.555 133.362 269.721 133.554 269.253 133.89C268.797 134.226 268.569 134.7 268.569 135.312C268.569 135.852 268.731 136.248 269.055 136.5C269.391 136.752 269.817 136.878 270.333 136.878C271.149 136.878 271.827 136.656 272.367 136.212C272.907 135.756 273.177 135.06 273.177 134.124V133.26L271.755 133.314ZM276.21 128.328H277.902L279.99 133.818C280.11 134.142 280.218 134.454 280.314 134.754C280.422 135.054 280.518 135.348 280.602 135.636C280.686 135.912 280.752 136.182 280.8 136.446H280.872C280.944 136.146 281.058 135.756 281.214 135.276C281.37 134.784 281.532 134.292 281.7 133.8L283.662 128.328H285.372L281.214 139.308C280.986 139.908 280.716 140.43 280.404 140.874C280.104 141.33 279.732 141.678 279.288 141.918C278.856 142.17 278.328 142.296 277.704 142.296C277.416 142.296 277.164 142.278 276.948 142.242C276.732 142.218 276.546 142.188 276.39 142.152V140.892C276.522 140.916 276.678 140.94 276.858 140.964C277.05 140.988 277.248 141 277.452 141C277.824 141 278.142 140.928 278.406 140.784C278.682 140.652 278.916 140.454 279.108 140.19C279.3 139.938 279.462 139.638 279.594 139.29L280.098 138.012L276.21 128.328ZM290.624 128.148C291.452 128.148 292.16 128.328 292.748 128.688C293.348 129.048 293.804 129.558 294.116 130.218C294.44 130.866 294.602 131.628 294.602 132.504V133.458H287.996C288.02 134.55 288.296 135.384 288.824 135.96C289.364 136.524 290.114 136.806 291.074 136.806C291.686 136.806 292.226 136.752 292.694 136.644C293.174 136.524 293.666 136.356 294.17 136.14V137.526C293.678 137.742 293.192 137.898 292.712 137.994C292.232 138.102 291.662 138.156 291.002 138.156C290.09 138.156 289.28 137.97 288.572 137.598C287.876 137.226 287.33 136.674 286.934 135.942C286.55 135.198 286.358 134.292 286.358 133.224C286.358 132.168 286.532 131.262 286.88 130.506C287.24 129.75 287.738 129.168 288.374 128.76C289.022 128.352 289.772 128.148 290.624 128.148ZM290.606 129.444C289.85 129.444 289.25 129.69 288.806 130.182C288.374 130.662 288.116 131.334 288.032 132.198H292.946C292.946 131.646 292.862 131.166 292.694 130.758C292.526 130.35 292.268 130.032 291.92 129.804C291.584 129.564 291.146 129.444 290.606 129.444ZM300.478 138.156C299.278 138.156 298.318 137.742 297.598 136.914C296.878 136.074 296.518 134.826 296.518 133.17C296.518 131.514 296.878 130.266 297.598 129.426C298.33 128.574 299.296 128.148 300.496 128.148C301 128.148 301.438 128.214 301.81 128.346C302.182 128.466 302.506 128.634 302.782 128.85C303.058 129.066 303.292 129.306 303.484 129.57H303.592C303.58 129.414 303.556 129.186 303.52 128.886C303.496 128.574 303.484 128.328 303.484 128.148V124.296H305.068V137.976H303.79L303.556 136.68H303.484C303.292 136.956 303.058 137.208 302.782 137.436C302.506 137.652 302.176 137.826 301.792 137.958C301.42 138.09 300.982 138.156 300.478 138.156ZM300.73 136.842C301.75 136.842 302.464 136.566 302.872 136.014C303.292 135.45 303.502 134.604 303.502 133.476V133.188C303.502 131.988 303.304 131.07 302.908 130.434C302.512 129.786 301.78 129.462 300.712 129.462C299.86 129.462 299.218 129.804 298.786 130.488C298.366 131.16 298.156 132.066 298.156 133.206C298.156 134.358 298.366 135.252 298.786 135.888C299.218 136.524 299.866 136.842 300.73 136.842ZM314.392 128.31C314.392 128.538 314.38 128.772 314.356 129.012C314.344 129.252 314.326 129.468 314.302 129.66H314.41C314.614 129.324 314.872 129.048 315.184 128.832C315.496 128.616 315.844 128.454 316.228 128.346C316.612 128.226 317.008 128.166 317.416 128.166C318.196 128.166 318.844 128.292 319.36 128.544C319.888 128.784 320.284 129.162 320.548 129.678C320.812 130.194 320.944 130.866 320.944 131.694V137.976H319.378V131.802C319.378 131.022 319.204 130.44 318.856 130.056C318.508 129.672 317.962 129.48 317.218 129.48C316.498 129.48 315.934 129.618 315.526 129.894C315.118 130.158 314.824 130.554 314.644 131.082C314.476 131.598 314.392 132.234 314.392 132.99V137.976H312.808V124.296H314.392V128.31ZM327.661 128.148C328.489 128.148 329.197 128.328 329.785 128.688C330.385 129.048 330.841 129.558 331.153 130.218C331.477 130.866 331.639 131.628 331.639 132.504V133.458H325.033C325.057 134.55 325.333 135.384 325.861 135.96C326.401 136.524 327.151 136.806 328.111 136.806C328.723 136.806 329.263 136.752 329.731 136.644C330.211 136.524 330.703 136.356 331.207 136.14V137.526C330.715 137.742 330.229 137.898 329.749 137.994C329.269 138.102 328.699 138.156 328.039 138.156C327.127 138.156 326.317 137.97 325.609 137.598C324.913 137.226 324.367 136.674 323.971 135.942C323.587 135.198 323.395 134.292 323.395 133.224C323.395 132.168 323.569 131.262 323.917 130.506C324.277 129.75 324.775 129.168 325.411 128.76C326.059 128.352 326.809 128.148 327.661 128.148ZM327.643 129.444C326.887 129.444 326.287 129.69 325.843 130.182C325.411 130.662 325.153 131.334 325.069 132.198H329.983C329.983 131.646 329.899 131.166 329.731 130.758C329.563 130.35 329.305 130.032 328.957 129.804C328.621 129.564 328.183 129.444 327.643 129.444ZM338.595 128.148C338.775 128.148 338.967 128.16 339.171 128.184C339.387 128.196 339.573 128.22 339.729 128.256L339.531 129.714C339.375 129.678 339.201 129.648 339.009 129.624C338.829 129.6 338.655 129.588 338.487 129.588C338.115 129.588 337.761 129.666 337.425 129.822C337.089 129.978 336.789 130.2 336.525 130.488C336.261 130.764 336.051 131.1 335.895 131.496C335.751 131.892 335.679 132.336 335.679 132.828V137.976H334.095V128.328H335.391L335.571 130.092H335.643C335.847 129.732 336.093 129.408 336.381 129.12C336.669 128.82 336.999 128.586 337.371 128.418C337.743 128.238 338.151 128.148 338.595 128.148ZM344.905 128.148C345.733 128.148 346.441 128.328 347.029 128.688C347.629 129.048 348.085 129.558 348.397 130.218C348.721 130.866 348.883 131.628 348.883 132.504V133.458H342.277C342.301 134.55 342.577 135.384 343.105 135.96C343.645 136.524 344.395 136.806 345.355 136.806C345.967 136.806 346.507 136.752 346.975 136.644C347.455 136.524 347.947 136.356 348.451 136.14V137.526C347.959 137.742 347.473 137.898 346.993 137.994C346.513 138.102 345.943 138.156 345.283 138.156C344.371 138.156 343.561 137.97 342.853 137.598C342.157 137.226 341.611 136.674 341.215 135.942C340.831 135.198 340.639 134.292 340.639 133.224C340.639 132.168 340.813 131.262 341.161 130.506C341.521 129.75 342.019 129.168 342.655 128.76C343.303 128.352 344.053 128.148 344.905 128.148ZM344.887 129.444C344.131 129.444 343.531 129.69 343.087 130.182C342.655 130.662 342.397 131.334 342.313 132.198H347.227C347.227 131.646 347.143 131.166 346.975 130.758C346.807 130.35 346.549 130.032 346.201 129.804C345.865 129.564 345.427 129.444 344.887 129.444ZM353.266 136.086C353.158 136.506 353.02 136.962 352.852 137.454C352.684 137.946 352.498 138.432 352.294 138.912C352.102 139.404 351.91 139.866 351.718 140.298H350.548C350.668 139.842 350.782 139.35 350.89 138.822C351.01 138.306 351.118 137.796 351.214 137.292C351.31 136.776 351.388 136.308 351.448 135.888H353.14L353.266 136.086ZM21.1914 157.532C21.1914 158.528 21.0654 159.434 20.8134 160.25C20.5614 161.054 20.1834 161.75 19.6794 162.338C19.1874 162.926 18.5694 163.376 17.8254 163.688C17.0934 164 16.2414 164.156 15.2694 164.156C14.2614 164.156 13.3854 164 12.6414 163.688C11.8974 163.364 11.2794 162.914 10.7874 162.338C10.2954 161.75 9.92945 161.048 9.68945 160.232C9.44945 159.416 9.32945 158.51 9.32945 157.514C9.32945 156.194 9.54545 155.042 9.97745 154.058C10.4094 153.074 11.0634 152.306 11.9394 151.754C12.8274 151.202 13.9434 150.926 15.2874 150.926C16.5714 150.926 17.6514 151.202 18.5274 151.754C19.4034 152.294 20.0634 153.062 20.5074 154.058C20.9634 155.042 21.1914 156.2 21.1914 157.532ZM11.0394 157.532C11.0394 158.612 11.1894 159.542 11.4894 160.322C11.7894 161.102 12.2514 161.702 12.8754 162.122C13.5114 162.542 14.3094 162.752 15.2694 162.752C16.2414 162.752 17.0334 162.542 17.6454 162.122C18.2694 161.702 18.7314 161.102 19.0314 160.322C19.3314 159.542 19.4814 158.612 19.4814 157.532C19.4814 155.912 19.1454 154.646 18.4734 153.734C17.8014 152.81 16.7394 152.348 15.2874 152.348C14.3154 152.348 13.5114 152.558 12.8754 152.978C12.2514 153.386 11.7894 153.98 11.4894 154.76C11.1894 155.528 11.0394 156.452 11.0394 157.532ZM28.4679 154.148C29.6199 154.148 30.4899 154.43 31.0779 154.994C31.6659 155.546 31.9599 156.446 31.9599 157.694V163.976H30.3939V157.802C30.3939 157.022 30.2199 156.44 29.8719 156.056C29.5239 155.672 28.9779 155.48 28.2339 155.48C27.1659 155.48 26.4279 155.78 26.0199 156.38C25.6119 156.98 25.4079 157.844 25.4079 158.972V163.976H23.8239V154.328H25.1019L25.3359 155.642H25.4259C25.6419 155.306 25.9059 155.03 26.2179 154.814C26.5419 154.586 26.8959 154.418 27.2799 154.31C27.6639 154.202 28.0599 154.148 28.4679 154.148ZM38.6769 154.148C39.5049 154.148 40.2129 154.328 40.8009 154.688C41.4009 155.048 41.8569 155.558 42.1689 156.218C42.4929 156.866 42.6549 157.628 42.6549 158.504V159.458H36.0489C36.0729 160.55 36.3489 161.384 36.8769 161.96C37.4169 162.524 38.1669 162.806 39.1269 162.806C39.7389 162.806 40.2789 162.752 40.7469 162.644C41.2269 162.524 41.7189 162.356 42.2229 162.14V163.526C41.7309 163.742 41.2449 163.898 40.7649 163.994C40.2849 164.102 39.7149 164.156 39.0549 164.156C38.1429 164.156 37.3329 163.97 36.6249 163.598C35.9289 163.226 35.3829 162.674 34.9869 161.942C34.6029 161.198 34.4109 160.292 34.4109 159.224C34.4109 158.168 34.5849 157.262 34.9329 156.506C35.2929 155.75 35.7909 155.168 36.4269 154.76C37.0749 154.352 37.8249 154.148 38.6769 154.148ZM38.6589 155.444C37.9029 155.444 37.3029 155.69 36.8589 156.182C36.4269 156.662 36.1689 157.334 36.0849 158.198H40.9989C40.9989 157.646 40.9149 157.166 40.7469 156.758C40.5789 156.35 40.3209 156.032 39.9729 155.804C39.6369 155.564 39.1989 155.444 38.6589 155.444ZM48.2748 154.328H49.9668L52.0548 159.818C52.1748 160.142 52.2828 160.454 52.3788 160.754C52.4868 161.054 52.5828 161.348 52.6668 161.636C52.7508 161.912 52.8168 162.182 52.8648 162.446H52.9368C53.0088 162.146 53.1228 161.756 53.2788 161.276C53.4348 160.784 53.5968 160.292 53.7648 159.8L55.7268 154.328H57.4368L53.2788 165.308C53.0508 165.908 52.7808 166.43 52.4688 166.874C52.1688 167.33 51.7968 167.678 51.3528 167.918C50.9208 168.17 50.3928 168.296 49.7688 168.296C49.4808 168.296 49.2288 168.278 49.0128 168.242C48.7968 168.218 48.6108 168.188 48.4548 168.152V166.892C48.5868 166.916 48.7428 166.94 48.9228 166.964C49.1148 166.988 49.3128 167 49.5168 167C49.8888 167 50.2068 166.928 50.4708 166.784C50.7468 166.652 50.9808 166.454 51.1728 166.19C51.3648 165.938 51.5268 165.638 51.6588 165.29L52.1628 164.012L48.2748 154.328ZM67.3506 159.134C67.3506 159.938 67.2426 160.652 67.0266 161.276C66.8226 161.888 66.5226 162.41 66.1266 162.842C65.7426 163.274 65.2686 163.604 64.7046 163.832C64.1526 164.048 63.5346 164.156 62.8506 164.156C62.2146 164.156 61.6266 164.048 61.0866 163.832C60.5466 163.604 60.0786 163.274 59.6826 162.842C59.2866 162.41 58.9746 161.888 58.7466 161.276C58.5306 160.652 58.4226 159.938 58.4226 159.134C58.4226 158.066 58.6026 157.166 58.9626 156.434C59.3226 155.69 59.8386 155.126 60.5106 154.742C61.1826 154.346 61.9806 154.148 62.9046 154.148C63.7806 154.148 64.5486 154.346 65.2086 154.742C65.8806 155.126 66.4026 155.69 66.7746 156.434C67.1586 157.166 67.3506 158.066 67.3506 159.134ZM60.0606 159.134C60.0606 159.89 60.1566 160.55 60.3486 161.114C60.5526 161.666 60.8646 162.092 61.2846 162.392C61.7046 162.692 62.2386 162.842 62.8866 162.842C63.5346 162.842 64.0686 162.692 64.4886 162.392C64.9086 162.092 65.2146 161.666 65.4066 161.114C65.6106 160.55 65.7126 159.89 65.7126 159.134C65.7126 158.366 65.6106 157.712 65.4066 157.172C65.2026 156.632 64.8906 156.218 64.4706 155.93C64.0626 155.63 63.5286 155.48 62.8686 155.48C61.8846 155.48 61.1706 155.804 60.7266 156.452C60.2826 157.1 60.0606 157.994 60.0606 159.134ZM77.9251 154.328V163.976H76.6291L76.3951 162.698H76.3231C76.1191 163.034 75.8551 163.31 75.5311 163.526C75.2071 163.742 74.8531 163.898 74.4691 163.994C74.0851 164.102 73.6831 164.156 73.2631 164.156C72.4951 164.156 71.8471 164.036 71.3191 163.796C70.8031 163.544 70.4131 163.16 70.1491 162.644C69.8851 162.128 69.7531 161.462 69.7531 160.646V154.328H71.3551V160.538C71.3551 161.306 71.5291 161.882 71.8771 162.266C72.2251 162.65 72.7651 162.842 73.4971 162.842C74.2171 162.842 74.7811 162.71 75.1891 162.446C75.6091 162.17 75.9031 161.774 76.0711 161.258C76.2511 160.73 76.3411 160.094 76.3411 159.35V154.328H77.9251ZM93.7278 154.328V163.976H92.4318L92.1978 162.698H92.1258C91.9218 163.034 91.6578 163.31 91.3338 163.526C91.0098 163.742 90.6558 163.898 90.2718 163.994C89.8878 164.102 89.4858 164.156 89.0658 164.156C88.2978 164.156 87.6498 164.036 87.1218 163.796C86.6058 163.544 86.2158 163.16 85.9518 162.644C85.6878 162.128 85.5558 161.462 85.5558 160.646V154.328H87.1578V160.538C87.1578 161.306 87.3318 161.882 87.6798 162.266C88.0278 162.65 88.5678 162.842 89.2998 162.842C90.0198 162.842 90.5838 162.71 90.9918 162.446C91.4118 162.17 91.7058 161.774 91.8738 161.258C92.0538 160.73 92.1438 160.094 92.1438 159.35V154.328H93.7278ZM101.381 154.148C102.569 154.148 103.523 154.562 104.243 155.39C104.975 156.218 105.341 157.466 105.341 159.134C105.341 160.226 105.173 161.15 104.837 161.906C104.513 162.65 104.051 163.214 103.451 163.598C102.863 163.97 102.167 164.156 101.363 164.156C100.871 164.156 100.433 164.09 100.049 163.958C99.6647 163.826 99.3347 163.658 99.0587 163.454C98.7947 163.238 98.5667 163.004 98.3747 162.752H98.2667C98.2907 162.956 98.3147 163.214 98.3387 163.526C98.3627 163.838 98.3747 164.108 98.3747 164.336V168.296H96.7907V154.328H98.0867L98.3027 155.642H98.3747C98.5667 155.366 98.7947 155.114 99.0587 154.886C99.3347 154.658 99.6587 154.478 100.031 154.346C100.415 154.214 100.865 154.148 101.381 154.148ZM101.093 155.48C100.445 155.48 99.9227 155.606 99.5267 155.858C99.1307 156.098 98.8427 156.464 98.6627 156.956C98.4827 157.448 98.3867 158.072 98.3747 158.828V159.134C98.3747 159.926 98.4587 160.598 98.6267 161.15C98.7947 161.702 99.0767 162.122 99.4727 162.41C99.8807 162.698 100.433 162.842 101.129 162.842C101.717 162.842 102.197 162.68 102.569 162.356C102.953 162.032 103.235 161.594 103.415 161.042C103.607 160.478 103.703 159.836 103.703 159.116C103.703 158.012 103.487 157.13 103.055 156.47C102.635 155.81 101.981 155.48 101.093 155.48ZM109.449 163.976H107.865V150.296H109.449V163.976ZM120.894 159.134C120.894 159.938 120.786 160.652 120.57 161.276C120.366 161.888 120.066 162.41 119.67 162.842C119.286 163.274 118.812 163.604 118.248 163.832C117.696 164.048 117.078 164.156 116.394 164.156C115.758 164.156 115.17 164.048 114.63 163.832C114.09 163.604 113.622 163.274 113.226 162.842C112.83 162.41 112.518 161.888 112.29 161.276C112.074 160.652 111.966 159.938 111.966 159.134C111.966 158.066 112.146 157.166 112.506 156.434C112.866 155.69 113.382 155.126 114.054 154.742C114.726 154.346 115.524 154.148 116.448 154.148C117.324 154.148 118.092 154.346 118.752 154.742C119.424 155.126 119.946 155.69 120.318 156.434C120.702 157.166 120.894 158.066 120.894 159.134ZM113.604 159.134C113.604 159.89 113.7 160.55 113.892 161.114C114.096 161.666 114.408 162.092 114.828 162.392C115.248 162.692 115.782 162.842 116.43 162.842C117.078 162.842 117.612 162.692 118.032 162.392C118.452 162.092 118.758 161.666 118.95 161.114C119.154 160.55 119.256 159.89 119.256 159.134C119.256 158.366 119.154 157.712 118.95 157.172C118.746 156.632 118.434 156.218 118.014 155.93C117.606 155.63 117.072 155.48 116.412 155.48C115.428 155.48 114.714 155.804 114.27 156.452C113.826 157.1 113.604 157.994 113.604 159.134ZM127.058 154.166C128.234 154.166 129.104 154.424 129.668 154.94C130.232 155.456 130.514 156.278 130.514 157.406V163.976H129.362L129.056 162.608H128.984C128.708 162.956 128.42 163.25 128.12 163.49C127.832 163.718 127.496 163.886 127.112 163.994C126.74 164.102 126.284 164.156 125.744 164.156C125.168 164.156 124.646 164.054 124.178 163.85C123.722 163.646 123.362 163.334 123.098 162.914C122.834 162.482 122.702 161.942 122.702 161.294C122.702 160.334 123.08 159.596 123.836 159.08C124.592 158.552 125.756 158.264 127.328 158.216L128.966 158.162V157.586C128.966 156.782 128.792 156.224 128.444 155.912C128.096 155.6 127.604 155.444 126.968 155.444C126.464 155.444 125.984 155.522 125.528 155.678C125.072 155.822 124.646 155.99 124.25 156.182L123.764 154.994C124.184 154.766 124.682 154.574 125.258 154.418C125.834 154.25 126.434 154.166 127.058 154.166ZM127.526 159.314C126.326 159.362 125.492 159.554 125.024 159.89C124.568 160.226 124.34 160.7 124.34 161.312C124.34 161.852 124.502 162.248 124.826 162.5C125.162 162.752 125.588 162.878 126.104 162.878C126.92 162.878 127.598 162.656 128.138 162.212C128.678 161.756 128.948 161.06 128.948 160.124V159.26L127.526 159.314ZM136.914 164.156C135.714 164.156 134.754 163.742 134.034 162.914C133.314 162.074 132.954 160.826 132.954 159.17C132.954 157.514 133.314 156.266 134.034 155.426C134.766 154.574 135.732 154.148 136.932 154.148C137.436 154.148 137.874 154.214 138.246 154.346C138.618 154.466 138.942 154.634 139.218 154.85C139.494 155.066 139.728 155.306 139.92 155.57H140.028C140.016 155.414 139.992 155.186 139.956 154.886C139.932 154.574 139.92 154.328 139.92 154.148V150.296H141.504V163.976H140.226L139.992 162.68H139.92C139.728 162.956 139.494 163.208 139.218 163.436C138.942 163.652 138.612 163.826 138.228 163.958C137.856 164.09 137.418 164.156 136.914 164.156ZM137.166 162.842C138.186 162.842 138.9 162.566 139.308 162.014C139.728 161.45 139.938 160.604 139.938 159.476V159.188C139.938 157.988 139.74 157.07 139.344 156.434C138.948 155.786 138.216 155.462 137.148 155.462C136.296 155.462 135.654 155.804 135.222 156.488C134.802 157.16 134.592 158.066 134.592 159.206C134.592 160.358 134.802 161.252 135.222 161.888C135.654 162.524 136.302 162.842 137.166 162.842ZM152.466 162.86C152.706 162.86 152.952 162.842 153.204 162.806C153.456 162.758 153.66 162.71 153.816 162.662V163.868C153.648 163.952 153.408 164.018 153.096 164.066C152.784 164.126 152.484 164.156 152.196 164.156C151.692 164.156 151.224 164.072 150.792 163.904C150.372 163.724 150.03 163.418 149.766 162.986C149.502 162.554 149.37 161.948 149.37 161.168V155.552H148.002V154.796L149.388 154.166L150.018 152.114H150.954V154.328H153.744V155.552H150.954V161.132C150.954 161.72 151.092 162.158 151.368 162.446C151.656 162.722 152.022 162.86 152.466 162.86ZM157.332 154.31C157.332 154.538 157.32 154.772 157.296 155.012C157.284 155.252 157.266 155.468 157.242 155.66H157.35C157.554 155.324 157.812 155.048 158.124 154.832C158.436 154.616 158.784 154.454 159.168 154.346C159.552 154.226 159.948 154.166 160.356 154.166C161.136 154.166 161.784 154.292 162.3 154.544C162.828 154.784 163.224 155.162 163.488 155.678C163.752 156.194 163.884 156.866 163.884 157.694V163.976H162.318V157.802C162.318 157.022 162.144 156.44 161.796 156.056C161.448 155.672 160.902 155.48 160.158 155.48C159.438 155.48 158.874 155.618 158.466 155.894C158.058 156.158 157.764 156.554 157.584 157.082C157.416 157.598 157.332 158.234 157.332 158.99V163.976H155.748V150.296H157.332V154.31ZM170.601 154.148C171.429 154.148 172.137 154.328 172.725 154.688C173.325 155.048 173.781 155.558 174.093 156.218C174.417 156.866 174.579 157.628 174.579 158.504V159.458H167.973C167.997 160.55 168.273 161.384 168.801 161.96C169.341 162.524 170.091 162.806 171.051 162.806C171.663 162.806 172.203 162.752 172.671 162.644C173.151 162.524 173.643 162.356 174.147 162.14V163.526C173.655 163.742 173.169 163.898 172.689 163.994C172.209 164.102 171.639 164.156 170.979 164.156C170.067 164.156 169.257 163.97 168.549 163.598C167.853 163.226 167.307 162.674 166.911 161.942C166.527 161.198 166.335 160.292 166.335 159.224C166.335 158.168 166.509 157.262 166.857 156.506C167.217 155.75 167.715 155.168 168.351 154.76C168.999 154.352 169.749 154.148 170.601 154.148ZM170.583 155.444C169.827 155.444 169.227 155.69 168.783 156.182C168.351 156.662 168.093 157.334 168.009 158.198H172.923C172.923 157.646 172.839 157.166 172.671 156.758C172.503 156.35 172.245 156.032 171.897 155.804C171.561 155.564 171.123 155.444 170.583 155.444ZM186.157 155.552H183.727V163.976H182.143V155.552H180.451V154.814L182.143 154.274V153.716C182.143 152.888 182.263 152.216 182.503 151.7C182.755 151.184 183.115 150.806 183.583 150.566C184.051 150.326 184.615 150.206 185.275 150.206C185.659 150.206 186.007 150.242 186.319 150.314C186.643 150.374 186.919 150.446 187.147 150.53L186.733 151.772C186.541 151.712 186.319 151.652 186.067 151.592C185.815 151.532 185.557 151.502 185.293 151.502C184.765 151.502 184.369 151.682 184.105 152.042C183.853 152.39 183.727 152.942 183.727 153.698V154.328H186.157V155.552ZM189.487 154.328V163.976H187.903V154.328H189.487ZM188.713 150.71C188.953 150.71 189.163 150.794 189.343 150.962C189.535 151.118 189.631 151.37 189.631 151.718C189.631 152.054 189.535 152.306 189.343 152.474C189.163 152.642 188.953 152.726 188.713 152.726C188.449 152.726 188.227 152.642 188.047 152.474C187.867 152.306 187.777 152.054 187.777 151.718C187.777 151.37 187.867 151.118 188.047 150.962C188.227 150.794 188.449 150.71 188.713 150.71ZM194.123 163.976H192.539V150.296H194.123V163.976ZM200.905 154.148C201.733 154.148 202.441 154.328 203.029 154.688C203.629 155.048 204.085 155.558 204.397 156.218C204.721 156.866 204.883 157.628 204.883 158.504V159.458H198.277C198.301 160.55 198.577 161.384 199.105 161.96C199.645 162.524 200.395 162.806 201.355 162.806C201.967 162.806 202.507 162.752 202.975 162.644C203.455 162.524 203.947 162.356 204.451 162.14V163.526C203.959 163.742 203.473 163.898 202.993 163.994C202.513 164.102 201.943 164.156 201.283 164.156C200.371 164.156 199.561 163.97 198.853 163.598C198.157 163.226 197.611 162.674 197.215 161.942C196.831 161.198 196.639 160.292 196.639 159.224C196.639 158.168 196.813 157.262 197.161 156.506C197.521 155.75 198.019 155.168 198.655 154.76C199.303 154.352 200.053 154.148 200.905 154.148ZM200.887 155.444C200.131 155.444 199.531 155.69 199.087 156.182C198.655 156.662 198.397 157.334 198.313 158.198H203.227C203.227 157.646 203.143 157.166 202.975 156.758C202.807 156.35 202.549 156.032 202.201 155.804C201.865 155.564 201.427 155.444 200.887 155.444ZM213.599 154.328V163.976H212.015V154.328H213.599ZM212.825 150.71C213.065 150.71 213.275 150.794 213.455 150.962C213.647 151.118 213.743 151.37 213.743 151.718C213.743 152.054 213.647 152.306 213.455 152.474C213.275 152.642 213.065 152.726 212.825 152.726C212.561 152.726 212.339 152.642 212.159 152.474C211.979 152.306 211.889 152.054 211.889 151.718C211.889 151.37 211.979 151.118 212.159 150.962C212.339 150.794 212.561 150.71 212.825 150.71ZM221.3 154.148C222.452 154.148 223.322 154.43 223.91 154.994C224.498 155.546 224.792 156.446 224.792 157.694V163.976H223.226V157.802C223.226 157.022 223.052 156.44 222.704 156.056C222.356 155.672 221.81 155.48 221.066 155.48C219.998 155.48 219.26 155.78 218.852 156.38C218.444 156.98 218.24 157.844 218.24 158.972V163.976H216.656V154.328H217.934L218.168 155.642H218.258C218.474 155.306 218.738 155.03 219.05 154.814C219.374 154.586 219.728 154.418 220.112 154.31C220.496 154.202 220.892 154.148 221.3 154.148ZM238.741 161.312C238.741 161.936 238.585 162.458 238.273 162.878C237.961 163.298 237.517 163.616 236.941 163.832C236.365 164.048 235.681 164.156 234.889 164.156C234.217 164.156 233.635 164.102 233.143 163.994C232.663 163.886 232.237 163.736 231.865 163.544V162.104C232.249 162.296 232.711 162.476 233.251 162.644C233.803 162.8 234.361 162.878 234.925 162.878C235.729 162.878 236.311 162.752 236.671 162.5C237.031 162.236 237.211 161.888 237.211 161.456C237.211 161.216 237.145 161 237.013 160.808C236.881 160.616 236.641 160.424 236.293 160.232C235.957 160.04 235.471 159.824 234.835 159.584C234.211 159.344 233.677 159.104 233.233 158.864C232.789 158.624 232.447 158.336 232.207 158C231.967 157.664 231.847 157.232 231.847 156.704C231.847 155.888 232.177 155.258 232.837 154.814C233.509 154.37 234.385 154.148 235.465 154.148C236.053 154.148 236.599 154.208 237.103 154.328C237.619 154.436 238.099 154.592 238.543 154.796L238.003 156.056C237.739 155.936 237.457 155.834 237.157 155.75C236.869 155.654 236.575 155.582 236.275 155.534C235.975 155.474 235.669 155.444 235.357 155.444C234.709 155.444 234.211 155.552 233.863 155.768C233.527 155.972 233.359 156.254 233.359 156.614C233.359 156.878 233.437 157.106 233.593 157.298C233.749 157.478 234.007 157.658 234.367 157.838C234.739 158.006 235.231 158.21 235.843 158.45C236.455 158.678 236.977 158.912 237.409 159.152C237.841 159.392 238.171 159.686 238.399 160.034C238.627 160.37 238.741 160.796 238.741 161.312ZM244.798 154.148C245.626 154.148 246.334 154.328 246.922 154.688C247.522 155.048 247.978 155.558 248.29 156.218C248.614 156.866 248.776 157.628 248.776 158.504V159.458H242.17C242.194 160.55 242.47 161.384 242.998 161.96C243.538 162.524 244.288 162.806 245.248 162.806C245.86 162.806 246.4 162.752 246.868 162.644C247.348 162.524 247.84 162.356 248.344 162.14V163.526C247.852 163.742 247.366 163.898 246.886 163.994C246.406 164.102 245.836 164.156 245.176 164.156C244.264 164.156 243.454 163.97 242.746 163.598C242.05 163.226 241.504 162.674 241.108 161.942C240.724 161.198 240.532 160.292 240.532 159.224C240.532 158.168 240.706 157.262 241.054 156.506C241.414 155.75 241.912 155.168 242.548 154.76C243.196 154.352 243.946 154.148 244.798 154.148ZM244.78 155.444C244.024 155.444 243.424 155.69 242.98 156.182C242.548 156.662 242.29 157.334 242.206 158.198H247.12C247.12 157.646 247.036 157.166 246.868 156.758C246.7 156.35 246.442 156.032 246.094 155.804C245.758 155.564 245.32 155.444 244.78 155.444ZM255.102 164.156C254.25 164.156 253.488 163.982 252.816 163.634C252.156 163.286 251.634 162.746 251.25 162.014C250.878 161.282 250.692 160.346 250.692 159.206C250.692 158.018 250.89 157.052 251.286 156.308C251.682 155.564 252.216 155.018 252.888 154.67C253.572 154.322 254.346 154.148 255.21 154.148C255.702 154.148 256.176 154.202 256.632 154.31C257.088 154.406 257.46 154.526 257.748 154.67L257.262 155.984C256.974 155.876 256.638 155.774 256.254 155.678C255.87 155.582 255.51 155.534 255.174 155.534C254.526 155.534 253.992 155.672 253.572 155.948C253.152 156.224 252.84 156.632 252.636 157.172C252.432 157.712 252.33 158.384 252.33 159.188C252.33 159.956 252.432 160.61 252.636 161.15C252.84 161.69 253.146 162.098 253.554 162.374C253.962 162.65 254.472 162.788 255.084 162.788C255.612 162.788 256.074 162.734 256.47 162.626C256.878 162.518 257.25 162.386 257.586 162.23V163.634C257.262 163.802 256.902 163.928 256.506 164.012C256.122 164.108 255.654 164.156 255.102 164.156ZM263.103 162.86C263.343 162.86 263.589 162.842 263.841 162.806C264.093 162.758 264.297 162.71 264.453 162.662V163.868C264.285 163.952 264.045 164.018 263.733 164.066C263.421 164.126 263.121 164.156 262.833 164.156C262.329 164.156 261.861 164.072 261.429 163.904C261.009 163.724 260.667 163.418 260.403 162.986C260.139 162.554 260.007 161.948 260.007 161.168V155.552H258.639V154.796L260.025 154.166L260.655 152.114H261.591V154.328H264.381V155.552H261.591V161.132C261.591 161.72 261.729 162.158 262.005 162.446C262.293 162.722 262.659 162.86 263.103 162.86ZM267.968 154.328V163.976H266.384V154.328H267.968ZM267.194 150.71C267.434 150.71 267.644 150.794 267.824 150.962C268.016 151.118 268.112 151.37 268.112 151.718C268.112 152.054 268.016 152.306 267.824 152.474C267.644 152.642 267.434 152.726 267.194 152.726C266.93 152.726 266.708 152.642 266.528 152.474C266.348 152.306 266.258 152.054 266.258 151.718C266.258 151.37 266.348 151.118 266.528 150.962C266.708 150.794 266.93 150.71 267.194 150.71ZM279.413 159.134C279.413 159.938 279.305 160.652 279.089 161.276C278.885 161.888 278.585 162.41 278.189 162.842C277.805 163.274 277.331 163.604 276.767 163.832C276.215 164.048 275.597 164.156 274.913 164.156C274.277 164.156 273.689 164.048 273.149 163.832C272.609 163.604 272.141 163.274 271.745 162.842C271.349 162.41 271.037 161.888 270.809 161.276C270.593 160.652 270.485 159.938 270.485 159.134C270.485 158.066 270.665 157.166 271.025 156.434C271.385 155.69 271.901 155.126 272.573 154.742C273.245 154.346 274.043 154.148 274.967 154.148C275.843 154.148 276.611 154.346 277.271 154.742C277.943 155.126 278.465 155.69 278.837 156.434C279.221 157.166 279.413 158.066 279.413 159.134ZM272.123 159.134C272.123 159.89 272.219 160.55 272.411 161.114C272.615 161.666 272.927 162.092 273.347 162.392C273.767 162.692 274.301 162.842 274.949 162.842C275.597 162.842 276.131 162.692 276.551 162.392C276.971 162.092 277.277 161.666 277.469 161.114C277.673 160.55 277.775 159.89 277.775 159.134C277.775 158.366 277.673 157.712 277.469 157.172C277.265 156.632 276.953 156.218 276.533 155.93C276.125 155.63 275.591 155.48 274.931 155.48C273.947 155.48 273.233 155.804 272.789 156.452C272.345 157.1 272.123 157.994 272.123 159.134ZM286.568 154.148C287.72 154.148 288.59 154.43 289.178 154.994C289.766 155.546 290.06 156.446 290.06 157.694V163.976H288.494V157.802C288.494 157.022 288.32 156.44 287.972 156.056C287.624 155.672 287.078 155.48 286.334 155.48C285.266 155.48 284.528 155.78 284.12 156.38C283.712 156.98 283.508 157.844 283.508 158.972V163.976H281.924V154.328H283.202L283.436 155.642H283.526C283.742 155.306 284.006 155.03 284.318 154.814C284.642 154.586 284.996 154.418 285.38 154.31C285.764 154.202 286.16 154.148 286.568 154.148ZM299.31 153.626C299.31 154.034 299.298 154.418 299.274 154.778C299.262 155.126 299.244 155.402 299.22 155.606H299.31C299.586 155.198 299.964 154.856 300.444 154.58C300.924 154.304 301.542 154.166 302.298 154.166C303.498 154.166 304.458 154.586 305.178 155.426C305.91 156.254 306.276 157.496 306.276 159.152C306.276 160.256 306.108 161.18 305.772 161.924C305.448 162.668 304.986 163.226 304.386 163.598C303.786 163.97 303.09 164.156 302.298 164.156C301.542 164.156 300.924 164.018 300.444 163.742C299.964 163.466 299.586 163.136 299.31 162.752H299.184L298.86 163.976H297.726V150.296H299.31V153.626ZM302.028 155.48C301.344 155.48 300.804 155.612 300.408 155.876C300.012 156.128 299.73 156.524 299.562 157.064C299.394 157.592 299.31 158.27 299.31 159.098V159.17C299.31 160.358 299.502 161.27 299.886 161.906C300.282 162.53 301.008 162.842 302.064 162.842C302.928 162.842 303.57 162.524 303.99 161.888C304.422 161.252 304.638 160.334 304.638 159.134C304.638 157.922 304.422 157.01 303.99 156.398C303.57 155.786 302.916 155.48 302.028 155.48ZM312.527 154.148C313.355 154.148 314.063 154.328 314.651 154.688C315.251 155.048 315.707 155.558 316.019 156.218C316.343 156.866 316.505 157.628 316.505 158.504V159.458H309.899C309.923 160.55 310.199 161.384 310.727 161.96C311.267 162.524 312.017 162.806 312.977 162.806C313.589 162.806 314.129 162.752 314.597 162.644C315.077 162.524 315.569 162.356 316.073 162.14V163.526C315.581 163.742 315.095 163.898 314.615 163.994C314.135 164.102 313.565 164.156 312.905 164.156C311.993 164.156 311.183 163.97 310.475 163.598C309.779 163.226 309.233 162.674 308.837 161.942C308.453 161.198 308.261 160.292 308.261 159.224C308.261 158.168 308.435 157.262 308.783 156.506C309.143 155.75 309.641 155.168 310.277 154.76C310.925 154.352 311.675 154.148 312.527 154.148ZM312.509 155.444C311.753 155.444 311.153 155.69 310.709 156.182C310.277 156.662 310.019 157.334 309.935 158.198H314.849C314.849 157.646 314.765 157.166 314.597 156.758C314.429 156.35 314.171 156.032 313.823 155.804C313.487 155.564 313.049 155.444 312.509 155.444ZM320.545 163.976H318.961V150.296H320.545V163.976ZM331.989 159.134C331.989 159.938 331.881 160.652 331.665 161.276C331.461 161.888 331.161 162.41 330.765 162.842C330.381 163.274 329.907 163.604 329.343 163.832C328.791 164.048 328.173 164.156 327.489 164.156C326.853 164.156 326.265 164.048 325.725 163.832C325.185 163.604 324.717 163.274 324.321 162.842C323.925 162.41 323.613 161.888 323.385 161.276C323.169 160.652 323.061 159.938 323.061 159.134C323.061 158.066 323.241 157.166 323.601 156.434C323.961 155.69 324.477 155.126 325.149 154.742C325.821 154.346 326.619 154.148 327.543 154.148C328.419 154.148 329.187 154.346 329.847 154.742C330.519 155.126 331.041 155.69 331.413 156.434C331.797 157.166 331.989 158.066 331.989 159.134ZM324.699 159.134C324.699 159.89 324.795 160.55 324.987 161.114C325.191 161.666 325.503 162.092 325.923 162.392C326.343 162.692 326.877 162.842 327.525 162.842C328.173 162.842 328.707 162.692 329.127 162.392C329.547 162.092 329.853 161.666 330.045 161.114C330.249 160.55 330.351 159.89 330.351 159.134C330.351 158.366 330.249 157.712 330.045 157.172C329.841 156.632 329.529 156.218 329.109 155.93C328.701 155.63 328.167 155.48 327.507 155.48C326.523 155.48 325.809 155.804 325.365 156.452C324.921 157.1 324.699 157.994 324.699 159.134ZM340.376 158.522C340.304 158.27 340.232 158.024 340.16 157.784C340.088 157.532 340.022 157.298 339.962 157.082C339.914 156.854 339.866 156.644 339.818 156.452C339.77 156.26 339.734 156.098 339.71 155.966H339.638C339.614 156.098 339.578 156.26 339.53 156.452C339.494 156.644 339.446 156.854 339.386 157.082C339.338 157.31 339.278 157.55 339.206 157.802C339.146 158.042 339.074 158.288 338.99 158.54L337.262 163.958H335.462L332.816 154.31H334.454L335.786 159.458C335.882 159.806 335.972 160.16 336.056 160.52C336.14 160.868 336.212 161.204 336.272 161.528C336.344 161.84 336.392 162.11 336.416 162.338H336.488C336.524 162.194 336.566 162.014 336.614 161.798C336.662 161.582 336.71 161.354 336.758 161.114C336.818 160.874 336.878 160.634 336.938 160.394C337.01 160.154 337.076 159.938 337.136 159.746L338.846 154.31H340.574L342.23 159.746C342.314 160.022 342.398 160.316 342.482 160.628C342.578 160.94 342.662 161.246 342.734 161.546C342.806 161.834 342.854 162.092 342.878 162.32H342.95C342.974 162.116 343.016 161.864 343.076 161.564C343.148 161.252 343.226 160.916 343.31 160.556C343.406 160.184 343.502 159.818 343.598 159.458L344.948 154.31H346.568L343.886 163.958H342.032L340.376 158.522Z" fill="#9E9E9E"/>
</svg>
