<svg width="182" height="169" viewBox="0 0 182 169" fill="none" xmlns="http://www.w3.org/2000/svg">
<g clip-path="url(#clip0_360_6792)">
<path fill-rule="evenodd" clip-rule="evenodd" d="M141.731 34.3024C141.408 15.6681 126.165 0.624655 107.454 0.624023H107.453C88.5407 0.624662 73.1709 15.9948 73.1709 34.9074H107.453H107.454H141.731V34.9075H107.453V34.9137H73.1771V69.1971H107.46V35.6243C107.843 54.2073 123.063 69.1909 141.737 69.1909V34.9132H141.739V69.1909C160.652 69.1909 176.022 53.8205 176.022 34.9075H176.015V0.629837H141.731V34.3024Z" fill="url(#paint0_linear_360_6792)"/>
<path fill-rule="evenodd" clip-rule="evenodd" d="M38.8967 35.3675V35.3672C19.9837 35.3672 4.61328 50.7376 4.61328 69.6506H38.8964V69.6509H73.1737V69.651H38.8964V69.6568H4.62032V103.94H38.9037V70.3678C39.2862 88.9508 54.5062 103.934 73.1798 103.934V69.6568H73.1811V103.934C92.0941 103.934 107.464 88.564 107.464 69.651H107.457V35.3733H73.1737V69.0011C72.8264 50.3872 57.5925 35.3677 38.8967 35.3675Z" fill="#2543CE" fill-opacity="0.2"/>
<path d="M3.91911 124.976H18.8395C22.4054 124.976 25.549 125.664 28.2703 127.04C31.0229 128.385 33.1499 130.293 34.6514 132.764C36.1841 135.235 36.9504 138.113 36.9504 141.398C36.9504 144.682 36.1841 147.56 34.6514 150.031C33.1499 152.502 31.0229 154.425 28.2703 155.802C25.549 157.147 22.4054 157.819 18.8395 157.819H3.91911V124.976ZM18.4641 151.579C21.7485 151.579 24.3604 150.672 26.2997 148.858C28.2703 147.012 29.2556 144.525 29.2556 141.398C29.2556 138.27 28.2703 135.798 26.2997 133.984C24.3604 132.139 21.7485 131.216 18.4641 131.216H11.5201V151.579H18.4641ZM66.8931 145.292C66.8931 145.386 66.8462 146.043 66.7524 147.262H47.6561C48.0002 148.826 48.8135 150.062 50.0959 150.969C51.3784 151.876 52.9737 152.33 54.8817 152.33C56.1955 152.33 57.3528 152.142 58.3538 151.767C59.386 151.36 60.34 150.734 61.2159 149.89L65.1102 154.113C62.7329 156.834 59.2609 158.195 54.694 158.195C51.8476 158.195 49.3296 157.647 47.14 156.553C44.9504 155.426 43.2613 153.878 42.0727 151.907C40.8841 149.937 40.2898 147.7 40.2898 145.198C40.2898 142.727 40.8684 140.506 42.0258 138.535C43.2144 136.534 44.8253 134.985 46.8585 133.89C48.923 132.764 51.222 132.201 53.7557 132.201C56.2268 132.201 58.4632 132.733 60.4651 133.797C62.467 134.86 64.031 136.393 65.1571 138.395C66.3144 140.365 66.8931 142.664 66.8931 145.292ZM53.8026 137.738C52.1448 137.738 50.7528 138.207 49.6267 139.145C48.5007 140.084 47.8125 141.366 47.5623 142.993H59.9959C59.7457 141.398 59.0576 140.131 57.9315 139.192C56.8054 138.223 55.4291 137.738 53.8026 137.738ZM96.4927 145.292C96.4927 145.386 96.4458 146.043 96.3519 147.262H77.2557C77.5998 148.826 78.4131 150.062 79.6955 150.969C80.978 151.876 82.5733 152.33 84.4813 152.33C85.7951 152.33 86.9524 152.142 87.9534 151.767C88.9856 151.36 89.9396 150.734 90.8154 149.89L94.7098 154.113C92.3325 156.834 88.8605 158.195 84.2936 158.195C81.4472 158.195 78.9292 157.647 76.7396 156.553C74.55 155.426 72.8609 153.878 71.6723 151.907C70.4837 149.937 69.8894 147.7 69.8894 145.198C69.8894 142.727 70.468 140.506 71.6254 138.535C72.814 136.534 74.4249 134.985 76.4581 133.89C78.5225 132.764 80.8216 132.201 83.3552 132.201C85.8263 132.201 88.0628 132.733 90.0647 133.797C92.0666 134.86 93.6306 136.393 94.7567 138.395C95.914 140.365 96.4927 142.664 96.4927 145.292ZM83.4022 137.738C81.7443 137.738 80.3524 138.207 79.2263 139.145C78.1003 140.084 77.4121 141.366 77.1619 142.993H89.5955C89.3453 141.398 88.6571 140.131 87.5311 139.192C86.405 138.223 85.0287 137.738 83.4022 137.738ZM116.286 132.201C118.632 132.201 120.759 132.749 122.667 133.843C124.606 134.907 126.124 136.424 127.218 138.395C128.313 140.334 128.861 142.602 128.861 145.198C128.861 147.794 128.313 150.078 127.218 152.048C126.124 153.988 124.606 155.505 122.667 156.599C120.759 157.663 118.632 158.195 116.286 158.195C113.064 158.195 110.531 157.178 108.685 155.145V166.922H101.366V132.577H108.357V135.486C110.171 133.296 112.814 132.201 116.286 132.201ZM115.019 152.189C116.896 152.189 118.429 151.563 119.617 150.312C120.837 149.03 121.447 147.325 121.447 145.198C121.447 143.071 120.837 141.382 119.617 140.131C118.429 138.848 116.896 138.207 115.019 138.207C113.143 138.207 111.594 138.848 110.374 140.131C109.186 141.382 108.591 143.071 108.591 145.198C108.591 147.325 109.186 149.03 110.374 150.312C111.594 151.563 113.143 152.189 115.019 152.189ZM156.469 140.881H163.413V154.207C161.63 155.552 159.566 156.584 157.22 157.303C154.874 158.023 152.512 158.382 150.135 158.382C146.726 158.382 143.66 157.663 140.939 156.224C138.218 154.754 136.075 152.736 134.511 150.171C132.978 147.575 132.212 144.651 132.212 141.398C132.212 138.144 132.978 135.235 134.511 132.67C136.075 130.074 138.233 128.057 140.986 126.618C143.739 125.148 146.835 124.413 150.276 124.413C153.154 124.413 155.766 124.898 158.112 125.867C160.458 126.837 162.428 128.244 164.023 130.09L159.144 134.594C156.798 132.123 153.967 130.888 150.651 130.888C148.556 130.888 146.694 131.325 145.068 132.201C143.441 133.077 142.175 134.313 141.267 135.908C140.36 137.503 139.907 139.333 139.907 141.398C139.907 143.431 140.36 145.245 141.267 146.84C142.175 148.435 143.426 149.687 145.021 150.594C146.648 151.47 148.493 151.907 150.557 151.907C152.747 151.907 154.718 151.438 156.469 150.5V140.881ZM170.474 124.976H178.075V157.819H170.474V124.976Z" fill="#474747"/>
</g>
<defs>
<linearGradient id="paint0_linear_360_6792" x1="179.705" y1="-0.414961" x2="68.8814" y2="72.4231" gradientUnits="userSpaceOnUse">
<stop stop-color="#E28BF0"/>
<stop offset="0.477987" stop-color="#8D81D5"/>
<stop offset="1" stop-color="#487EE7"/>
</linearGradient>
<clipPath id="clip0_360_6792">
<rect width="182" height="168.161" fill="white" transform="translate(0 0.624023)"/>
</clipPath>
</defs>
</svg>
