<svg width="146" height="61" viewBox="0 0 146 61" fill="none" xmlns="http://www.w3.org/2000/svg">
<g clip-path="url(#clip0_295_2556)">
<path d="M8.75891 21.9437H51.7632C54.1339 21.9437 55.3525 20.5479 55.3525 18.1772V16.0724C55.3525 13.7017 54.1339 12.3059 51.7632 12.3059H8.75891C6.49902 12.3059 5.14752 13.7017 5.14752 16.0724V18.1772C5.14752 20.5479 6.38824 21.9437 8.75891 21.9437ZM19.2164 51.0563H41.3057C45.471 51.0563 47.1548 48.8408 47.7974 44.6976L50.7662 24.8904H9.73376L12.7248 44.6976C13.3452 48.8629 15.029 51.0563 19.2164 51.0563ZM24.0685 45.2515C23.1158 45.2515 22.3182 44.4539 22.3182 43.5012C22.3182 43.0138 22.5398 42.615 22.85 42.3048L27.8129 37.3198L22.85 32.3126C22.5398 32.0024 22.3182 31.6036 22.3182 31.1161C22.3182 30.1856 23.1158 29.4102 24.0685 29.4102C24.5338 29.4102 24.8883 29.6096 25.2428 29.9197L30.25 34.9048L35.2794 29.8976C35.656 29.5652 36.0105 29.3658 36.4758 29.3658C37.4285 29.3658 38.2261 30.1413 38.2261 31.1161C38.2261 31.5814 38.0045 31.9138 37.6722 32.2904L32.7093 37.3198L37.65 42.2827C37.9824 42.615 38.2039 42.9916 38.2039 43.5012C38.2039 44.4318 37.4063 45.2515 36.4758 45.2515C35.9662 45.2515 35.5674 45.0078 35.2572 44.7198L30.25 39.7347L25.265 44.7198C24.9548 45.03 24.5338 45.2515 24.0685 45.2515Z" fill="#9E9E9E"/>
</g>
<path d="M85.3367 34.7803H83.8667L78.5187 26.4783H78.4627C78.472 26.6463 78.4814 26.8329 78.4907 27.0383C78.5094 27.2436 78.5234 27.4676 78.5327 27.7103C78.542 27.9436 78.5514 28.1863 78.5607 28.4383C78.57 28.6903 78.5747 28.9423 78.5747 29.1943V34.7803H77.4127V24.7843H78.8687L84.2027 33.0583H84.2587C84.2494 32.9463 84.24 32.7923 84.2307 32.5963C84.2214 32.3909 84.212 32.1669 84.2027 31.9243C84.1934 31.6723 84.184 31.4156 84.1747 31.1543C84.1654 30.8929 84.1607 30.6503 84.1607 30.4263V24.7843H85.3367V34.7803ZM94.4054 31.0143C94.4054 31.6396 94.3214 32.1949 94.1534 32.6803C93.9947 33.1563 93.7614 33.5623 93.4534 33.8983C93.1547 34.2343 92.7861 34.4909 92.3474 34.6683C91.9181 34.8363 91.4374 34.9203 90.9054 34.9203C90.4107 34.9203 89.9534 34.8363 89.5334 34.6683C89.1134 34.4909 88.7494 34.2343 88.4414 33.8983C88.1334 33.5623 87.8907 33.1563 87.7134 32.6803C87.5454 32.1949 87.4614 31.6396 87.4614 31.0143C87.4614 30.1836 87.6014 29.4836 87.8814 28.9143C88.1614 28.3356 88.5627 27.8969 89.0854 27.5983C89.6081 27.2903 90.2287 27.1363 90.9474 27.1363C91.6287 27.1363 92.2261 27.2903 92.7394 27.5983C93.2621 27.8969 93.6681 28.3356 93.9574 28.9143C94.2561 29.4836 94.4054 30.1836 94.4054 31.0143ZM88.7354 31.0143C88.7354 31.6023 88.8101 32.1156 88.9594 32.5543C89.1181 32.9836 89.3607 33.3149 89.6874 33.5483C90.0141 33.7816 90.4294 33.8983 90.9334 33.8983C91.4374 33.8983 91.8527 33.7816 92.1794 33.5483C92.5061 33.3149 92.7441 32.9836 92.8934 32.5543C93.0521 32.1156 93.1314 31.6023 93.1314 31.0143C93.1314 30.4169 93.0521 29.9083 92.8934 29.4883C92.7347 29.0683 92.4921 28.7463 92.1654 28.5223C91.8481 28.2889 91.4327 28.1723 90.9194 28.1723C90.1541 28.1723 89.5987 28.4243 89.2534 28.9283C88.9081 29.4323 88.7354 30.1276 88.7354 31.0143ZM107.807 34.7803H106.547V30.1183H101.423V34.7803H100.163V24.7843H101.423V29.0123H106.547V24.7843H107.807V34.7803ZM111.604 27.2763V34.7803H110.372V27.2763H111.604ZM111.002 24.4623C111.188 24.4623 111.352 24.5276 111.492 24.6583C111.641 24.7796 111.716 24.9756 111.716 25.2463C111.716 25.5076 111.641 25.7036 111.492 25.8343C111.352 25.9649 111.188 26.0303 111.002 26.0303C110.796 26.0303 110.624 25.9649 110.484 25.8343C110.344 25.7036 110.274 25.5076 110.274 25.2463C110.274 24.9756 110.344 24.7796 110.484 24.6583C110.624 24.5276 110.796 24.4623 111.002 24.4623ZM118.867 32.7083C118.867 33.1936 118.746 33.5996 118.503 33.9263C118.26 34.2529 117.915 34.5003 117.467 34.6683C117.019 34.8363 116.487 34.9203 115.871 34.9203C115.348 34.9203 114.896 34.8783 114.513 34.7943C114.14 34.7103 113.808 34.5936 113.519 34.4443V33.3243C113.818 33.4736 114.177 33.6136 114.597 33.7443C115.026 33.8656 115.46 33.9263 115.899 33.9263C116.524 33.9263 116.977 33.8283 117.257 33.6323C117.537 33.4269 117.677 33.1563 117.677 32.8203C117.677 32.6336 117.626 32.4656 117.523 32.3163C117.42 32.1669 117.234 32.0176 116.963 31.8683C116.702 31.7189 116.324 31.5509 115.829 31.3643C115.344 31.1776 114.928 30.9909 114.583 30.8043C114.238 30.6176 113.972 30.3936 113.785 30.1323C113.598 29.8709 113.505 29.5349 113.505 29.1243C113.505 28.4896 113.762 27.9996 114.275 27.6543C114.798 27.3089 115.479 27.1363 116.319 27.1363C116.776 27.1363 117.201 27.1829 117.593 27.2763C117.994 27.3603 118.368 27.4816 118.713 27.6403L118.293 28.6203C118.088 28.5269 117.868 28.4476 117.635 28.3823C117.411 28.3076 117.182 28.2516 116.949 28.2143C116.716 28.1676 116.478 28.1443 116.235 28.1443C115.731 28.1443 115.344 28.2283 115.073 28.3963C114.812 28.5549 114.681 28.7743 114.681 29.0543C114.681 29.2596 114.742 29.4369 114.863 29.5863C114.984 29.7263 115.185 29.8663 115.465 30.0063C115.754 30.1369 116.137 30.2956 116.613 30.4823C117.089 30.6596 117.495 30.8416 117.831 31.0283C118.167 31.2149 118.424 31.4436 118.601 31.7143C118.778 31.9756 118.867 32.3069 118.867 32.7083ZM123.186 33.9123C123.373 33.9123 123.564 33.8983 123.76 33.8703C123.956 33.8329 124.115 33.7956 124.236 33.7583V34.6963C124.106 34.7616 123.919 34.8129 123.676 34.8503C123.434 34.8969 123.2 34.9203 122.976 34.9203C122.584 34.9203 122.22 34.8549 121.884 34.7243C121.558 34.5843 121.292 34.3463 121.086 34.0103C120.881 33.6743 120.778 33.2029 120.778 32.5963V28.2283H119.714V27.6403L120.792 27.1503L121.282 25.5543H122.01V27.2763H124.18V28.2283H122.01V32.5683C122.01 33.0256 122.118 33.3663 122.332 33.5903C122.556 33.8049 122.841 33.9123 123.186 33.9123ZM132.263 31.0143C132.263 31.6396 132.179 32.1949 132.011 32.6803C131.852 33.1563 131.619 33.5623 131.311 33.8983C131.012 34.2343 130.643 34.4909 130.205 34.6683C129.775 34.8363 129.295 34.9203 128.763 34.9203C128.268 34.9203 127.811 34.8363 127.391 34.6683C126.971 34.4909 126.607 34.2343 126.299 33.8983C125.991 33.5623 125.748 33.1563 125.571 32.6803C125.403 32.1949 125.319 31.6396 125.319 31.0143C125.319 30.1836 125.459 29.4836 125.739 28.9143C126.019 28.3356 126.42 27.8969 126.943 27.5983C127.465 27.2903 128.086 27.1363 128.805 27.1363C129.486 27.1363 130.083 27.2903 130.597 27.5983C131.119 27.8969 131.525 28.3356 131.815 28.9143C132.113 29.4836 132.263 30.1836 132.263 31.0143ZM126.593 31.0143C126.593 31.6023 126.667 32.1156 126.817 32.5543C126.975 32.9836 127.218 33.3149 127.545 33.5483C127.871 33.7816 128.287 33.8983 128.791 33.8983C129.295 33.8983 129.71 33.7816 130.037 33.5483C130.363 33.3149 130.601 32.9836 130.751 32.5543C130.909 32.1156 130.989 31.6023 130.989 31.0143C130.989 30.4169 130.909 29.9083 130.751 29.4883C130.592 29.0683 130.349 28.7463 130.023 28.5223C129.705 28.2889 129.29 28.1723 128.777 28.1723C128.011 28.1723 127.456 28.4243 127.111 28.9283C126.765 29.4323 126.593 30.1276 126.593 31.0143ZM137.715 27.1363C137.855 27.1363 138.005 27.1456 138.163 27.1643C138.331 27.1736 138.476 27.1923 138.597 27.2203L138.443 28.3543C138.322 28.3263 138.187 28.3029 138.037 28.2843C137.897 28.2656 137.762 28.2563 137.631 28.2563C137.342 28.2563 137.067 28.3169 136.805 28.4383C136.544 28.5596 136.311 28.7323 136.105 28.9563C135.9 29.1709 135.737 29.4323 135.615 29.7403C135.503 30.0483 135.447 30.3936 135.447 30.7763V34.7803H134.215V27.2763H135.223L135.363 28.6483H135.419C135.578 28.3683 135.769 28.1163 135.993 27.8923C136.217 27.6589 136.474 27.4769 136.763 27.3463C137.053 27.2063 137.37 27.1363 137.715 27.1363ZM138.823 27.2763H140.139L141.763 31.5463C141.856 31.7983 141.94 32.0409 142.015 32.2743C142.099 32.5076 142.173 32.7363 142.239 32.9603C142.304 33.1749 142.355 33.3849 142.393 33.5903H142.449C142.505 33.3569 142.593 33.0536 142.715 32.6803C142.836 32.2976 142.962 31.9149 143.093 31.5323L144.619 27.2763H145.949L142.715 35.8163C142.537 36.2829 142.327 36.6889 142.085 37.0343C141.851 37.3889 141.562 37.6596 141.217 37.8463C140.881 38.0423 140.47 38.1403 139.985 38.1403C139.761 38.1403 139.565 38.1263 139.397 38.0983C139.229 38.0796 139.084 38.0563 138.963 38.0283V37.0483C139.065 37.0669 139.187 37.0856 139.327 37.1043C139.476 37.1229 139.63 37.1323 139.789 37.1323C140.078 37.1323 140.325 37.0763 140.531 36.9643C140.745 36.8616 140.927 36.7076 141.077 36.5023C141.226 36.3063 141.352 36.0729 141.455 35.8023L141.847 34.8083L138.823 27.2763Z" fill="#8E8E8E"/>
<defs>
<clipPath id="clip0_295_2556">
<rect width="60" height="60" fill="white" transform="translate(0 0.780273)"/>
</clipPath>
</defs>
</svg>
