<svg width="18" height="18" viewBox="0 0 18 18" fill="none" xmlns="http://www.w3.org/2000/svg">
<path d="M8.99121 17.2939C13.6494 17.2939 17.5078 13.4355 17.5078 8.77734C17.5078 4.11914 13.6406 0.260742 8.98242 0.260742C4.33301 0.260742 0.474609 4.11914 0.474609 8.77734C0.474609 13.4355 4.33301 17.2939 8.99121 17.2939ZM9 8.98828C8.64844 8.98828 8.41113 8.7334 8.41113 8.37305V4.66406C8.41113 4.30371 8.64844 4.04883 9 4.04883C9.35156 4.04883 9.59766 4.30371 9.59766 4.66406V8.37305C9.59766 8.7334 9.35156 8.98828 9 8.98828ZM9 13.2598C6.54785 13.2598 4.50879 11.2207 4.50879 8.77734C4.50879 7.54688 5.04492 6.33398 5.95898 5.50781C6.56543 4.92773 7.40039 5.78906 6.78516 6.37793C6.11719 7.00195 5.74805 7.8457 5.74805 8.77734C5.74805 10.5967 7.18945 12.0381 9 12.0381C10.8105 12.0381 12.2695 10.5967 12.2695 8.77734C12.2607 7.8457 11.8828 7.00195 11.2148 6.38672C10.5996 5.79785 11.4346 4.93652 12.041 5.50781C12.9551 6.34277 13.4912 7.55566 13.4912 8.77734C13.4912 11.2207 11.4521 13.2598 9 13.2598Z" fill="#EB5757"/>
</svg>
